<svg xmlns="http://www.w3.org/2000/svg" width="531" height="429" viewBox="0 0 531 429">
    <g fill="none">
        <path fill="#93759E" d="M499.835 192.287c5.225 27.995 8.747 111.187-44.53 150.176-33.284 24.255-116.55 42.05-174.256 12.24-102.918-53.156 30.443-177.49-87.242-218.406-76.223-26.522-155.854 18.474-170.394 54.177l3.067.34c12.495-30.602 92.694-77.979 160.397-54.517 109.734 37.969-22.037 169.444 85.766 224.527 57.82 29.469 144.267 16.548 186.41-14.28 69.522-51.004 52.369-143.83 48.62-156.41-2.954-10.768-9.542-6.914-7.838 2.153z"/>
        <g opacity=".53">
            <path fill="#FFCF48" d="M341.265 404.764L352.269 404.766 352.27 408.506 341.265 408.504z" transform="translate(55.254 3.746) rotate(170.085 346.767 406.635)"/>
            <path fill="#FFCF48" d="M218.388 59.21L230.865 59.215 230.867 64.428 218.39 64.423z" transform="translate(55.254 3.746) rotate(-23.391 224.627 61.819)"/>
            <path fill="#AF65D1" d="M347.019 338.545L359.494 338.537 359.491 343.752 347.016 343.759z" transform="translate(55.254 3.746) rotate(-145.714 353.255 341.148)"/>
            <path fill="#BDD654" d="M135.194 378.012L147.666 378.019 147.669 383.235 135.198 383.227z" transform="translate(55.254 3.746) rotate(-45.677 141.432 380.623)"/>
            <path fill="#FF5A99" d="M167.772 73.644L180.252 73.644 180.252 77.157 167.772 77.157z" transform="translate(55.254 3.746) rotate(1.55 174.012 75.4)"/>
            <path fill="#BDD654" d="M185.322 24.478L191.559 24.482 191.563 30.49 185.325 30.487z" transform="translate(55.254 3.746) rotate(-35.534 188.442 27.484)"/>
            <path fill="#BDD654" d="M418.386 253.937L424.625 253.94 424.628 259.948 418.39 259.944z" transform="translate(55.254 3.746) rotate(151.954 421.507 256.942)"/>
            <path fill="#65A9E5" d="M447.9 387.151L454.138 387.154 454.141 393.161 447.903 393.158z" transform="translate(55.254 3.746) rotate(151.954 451.02 390.156)"/>
            <path fill="#AF65D1" d="M440.845 336.176L446.063 336.174 446.061 341.16 440.843 341.162z" transform="translate(55.254 3.746) rotate(-160.701 443.453 338.668)"/>
            <path fill="#BDD654" d="M372.127 254.359L380.18 254.364 380.184 262.071 372.131 262.067z" transform="translate(55.254 3.746) rotate(151.954 376.155 258.215)"/>
            <path fill="#FF7697" d="M350.115 115.692L353.859 120.564 347.278 124.983 346.144 133.935 341.152 129.969 345.463 124.19zM122.302 341.07L124.231 335.178 131.605 338.237 139.66 334.271 139.093 340.617 131.945 340.163z" transform="translate(55.254 3.746)"/>
            <path fill="#FFE878" d="M404.458 183.453L405.706 188.892 398.672 187.872 394.361 193.311 391.865 187.645 397.424 186.399z" transform="translate(55.254 3.746)"/>
            <path fill="#65A9E5" d="M344.555 310.816L342.173 313.648 348.753 314.328 354.993 322.26 356.695 315.801 349.888 313.422zM360.439 238.182L362.594 234.67 355.447 234.896 347.505 227.191 346.598 234.67 354.312 236.143z" transform="translate(55.254 3.746)"/>
            <path fill="#FFCF48" d="M208.742 122.529L221.219 122.523 221.217 126.037 208.741 126.043z" transform="translate(55.254 3.746) rotate(-153.179 214.98 124.283)"/>
            <path fill="#BDD654" d="M182.739 191.364L188.977 191.367 188.98 197.374 182.742 197.371z" transform="translate(55.254 3.746) rotate(151.954 185.86 194.37)"/>
            <path fill="#AF65D1" d="M222.571 163.699L227.789 163.697 227.787 168.683 222.569 168.685z" transform="translate(55.254 3.746) rotate(-160.706 225.179 166.191)"/>
            <path fill="#BDD654" d="M273.817 150.878L281.87 150.882 281.874 158.59 273.821 158.586z" transform="translate(55.254 3.746) rotate(151.954 277.846 154.734)"/>
            <path fill="#BA6AB4" d="M305.301 115.125L307.23 120.678 299.969 121.244 296.338 128.043 293.161 122.604 298.607 119.884z" transform="translate(55.254 3.746)"/>
            <path fill="#65A9E5" d="M259.92 131.896L262.075 128.383 254.928 128.609 247.1 120.904 246.192 128.383 253.793 129.856z" transform="translate(55.254 3.746)"/>
            <path fill="#AF65D1" d="M1.16 286.149L13.635 286.142 13.632 291.356 1.157 291.363z" transform="translate(55.254 3.746) rotate(-145.714 7.396 288.752)"/>
            <path fill="#FFCF48" d="M85.241 182.975L97.717 182.969 97.716 186.482 85.239 186.488z" transform="translate(55.254 3.746) rotate(-153.179 91.478 184.728)"/>
            <path fill="#BDD654" d="M47.889 170.573L54.128 170.576 54.131 176.584 47.892 176.58z" transform="translate(55.254 3.746) rotate(151.954 51.01 173.578)"/>
            <path fill="#65A9E5" d="M109.524 89.478L115.762 89.481 115.765 95.488 109.527 95.485z" transform="translate(55.254 3.746) rotate(151.951 112.644 92.483)"/>
            <path fill="#AF65D1" d="M86.397 43.716L91.615 43.714 91.613 48.7 86.395 48.702z" transform="translate(55.254 3.746) rotate(-160.706 89.005 46.208)"/>
            <path fill="#BDD654" d="M135.54 28.069L143.593 28.074 143.597 35.781 135.544 35.777z" transform="translate(55.254 3.746) rotate(151.954 139.568 31.925)"/>
            <path fill="#65A9E5" d="M123.777 11.898L125.932 8.385 118.785 8.612 110.957 0.906 110.049 8.385 117.65 9.858z" transform="translate(55.254 3.746)"/>
        </g>
        <g fill="#D3B4DB">
            <g>
                <path d="M13.74 19.944c-.34-.68-.795-1.361-1.363-2.042C8.517 13.249.114 8.596.114 8.596l10.674 10.667s-3.861 1.93-1.022 5.788c2.952 3.972 6.586 0 3.974-5.107zM20.553 10.98c-.454-.568-1.022-1.136-1.817-1.703C13.967 5.532 4.883 2.58 4.883 2.58l12.604 8.398s-3.406 2.724.227 5.901c3.748 3.178 6.473-1.362 2.84-5.9z" transform="translate(22.476) translate(122.639 358.407)"/>
                <path d="M3.861 11.774L7.835 3.603 3.066 0.085 0.114 8.596z" transform="translate(22.476) translate(122.639 358.407)"/>
            </g>
            <g>
                <path d="M14.421 19.746c-.34-.68-.794-1.362-1.362-2.043C9.198 13.051.795 8.398.795 8.398l10.674 10.667s-3.86 1.93-1.022 5.788c2.952 3.972 6.473.113 3.974-5.107zM21.235 10.894c-.455-.567-1.022-1.134-1.817-1.702-4.77-3.745-13.854-6.695-13.854-6.695l12.605 8.397s-3.407 2.724.227 5.901c3.634 3.178 6.359-1.361 2.839-5.9z" transform="translate(22.476) translate(253.226)"/>
                <path d="M4.429 11.689L8.517 3.518 3.634 0 0.795 8.398z" transform="translate(22.476) translate(253.226)"/>
            </g>
            <g>
                <path d="M7.154 19.746c.454-.567.795-1.362 1.135-2.156 2.158-5.674 2.044-15.207 2.044-15.207L6.36 17.023S2.725 14.638.795 19.064c-1.93 4.312 3.18 5.447 6.359.681zM18.396 21.221c.227-.68.454-1.475.568-2.383.908-6.014-1.022-15.32-1.022-15.32L16.92 18.611s-4.088-1.589-4.997 3.064c-1.022 4.766 4.202 4.88 6.473-.454z" transform="translate(22.476) translate(488.283 273.493)"/>
                <path d="M9.311 7.149L18.509 6.582 19.077 0.681 10.333 2.27z" transform="translate(22.476) translate(488.283 273.493)"/>
            </g>
            <g>
                <path d="M7.495 14.072c.68-.34 1.362-.795 2.044-1.362C14.194 8.852 18.964.567 18.964.567L8.176 11.121S6.246 7.263 2.385 10.1c-3.975 2.95-.114 6.468 5.11 3.972zM16.352 20.994c.568-.454 1.135-1.021 1.703-1.702 3.861-4.653 6.813-13.731 6.813-13.731l-8.516 12.596s-2.612-3.404-5.905.114c-3.18 3.518 1.363 6.241 5.905 2.723z" transform="translate(22.476) translate(347.476 56.741)"/>
                <path d="M15.67 4.312L23.846 8.398 27.367 3.518 18.964 0.567z" transform="translate(22.476) translate(347.476 56.741)"/>
            </g>
            <g>
                <path d="M7.154 13.958c.681-.34 1.363-.794 2.044-1.361C13.854 8.738 18.623.454 18.623.454L7.835 11.008s-1.93-3.859-5.791-1.022c-3.974 2.951-.114 6.582 5.11 3.972zM16.011 20.88c.568-.453 1.136-1.02 1.703-1.701 3.861-4.653 6.814-13.732 6.814-13.732L16.01 18.044s-2.612-3.405-5.905.113c-3.18 3.518 1.25 6.355 5.905 2.724z" transform="translate(22.476) translate(0 224.696)"/>
                <path d="M15.33 4.199L23.506 8.284 27.026 3.518 18.623 0.567z" transform="translate(22.476) translate(0 224.696)"/>
            </g>
            <g>
                <path d="M7.154 12.824c.681-.227 1.476-.568 2.157-1.135C14.421 8.51 20.213.794 20.213.794L8.176 9.873S6.813 5.788 2.498 8.057c-4.201 2.497-.908 6.582 4.656 4.767zM15.103 20.767c.681-.34 1.249-.908 1.93-1.475C21.462 15.093 25.55 6.47 25.55 6.47l-9.993 11.348s-2.158-3.745-5.905-.568c-3.747 3.178.34 6.469 5.45 3.518z" transform="translate(22.476) translate(168.06 108.943)"/>
                <path d="M16.579 4.085L24.073 9.192 28.161 4.88 20.213 0.908z" transform="translate(22.476) translate(168.06 108.943)"/>
            </g>
        </g>
        <g transform="translate(351.19 47.762)">
            <path fill="#FF9566" d="M50.266 65.866c-.453-2.04-1.925-7.709-1.585-8.39.34-.68 3.396-2.04 4.302-.906.905 1.134 3.736 10.43 3.736 10.43l-6.453-1.134zM55.36 62.238c-.113-2.38-1.132-8.162-.792-8.842.34-.68 3.056-2.834 3.962-1.7.906 1.133 2.264 11.45 2.264 11.45l-5.434-.908zM59.888 56.23c.227-1.927.793-4.195.906-4.875.227-1.134 3.397-2.607 4.076-1.247.679 1.36.34 9.183.34 9.183l-5.322-3.061zM64.077 63.485c1.246-1.7 5.321-5.214 5.887-5.328.566-.113 2.49 1.814 2.378 3.628-.114 1.7-4.982 9.976-4.982 9.976l-3.283-8.276z"/>
            <path fill="#FF9566" d="M68.153 59.971c.226-2.04.68-7.255 1.245-7.709.453-.34 3.057 0 3.85 1.474.792 1.474-1.246 9.296-1.246 9.296l-3.85-3.061zM52.983 83.098c-1.699-8.276-3.057-15.531-2.83-18.82.113-2.493 10.075-10.996 13.698-10.089 3.623.907-1.472 3.515 5.547 11.564-.68 1.587-2.264 12.243-2.264 12.243l-14.151 5.102z"/>
            <path fill="#FFB255" d="M60.794 61.672L61.134 68.133 59.888 68.474 59.549 61.898zM67.021 60.198L66.908 68.02 65.775 68.247 65.889 60.424z"/>
            <path fill="#FFD066" d="M59.775 61.218c1.246-.453 2.378-.567 2.49-.227.114.34-.792 1.02-2.15 1.474-1.245.454-2.378.567-2.49.227-.114-.34.792-1.02 2.15-1.474zM66.228 59.744c1.246-.453 2.378-.567 2.49-.226.114.34-.792 1.02-2.15 1.473-1.245.454-2.377.567-2.49.227-.114-.34.905-1.02 2.15-1.474z"/>
            <path fill="#FFB882" d="M52.87 54.643c.792 1.927 2.377 8.389 2.15 9.182-.226.794-2.377 2.154-3.396 1.134-1.019-1.02-2.83-7.142-2.83-7.142-.68-2.834 3.396-4.535 4.075-3.174zM58.643 51.015c.793 1.927 2.378 8.39 2.151 9.183-.226.793-2.377 2.154-3.396 1.133-1.019-1.02-2.83-7.142-2.83-7.142-.68-2.72 3.396-4.421 4.075-3.174zM65.323 49.768c.792 1.927 2.377 8.39 2.15 9.183-.226.793-2.377 2.154-3.396 1.133-1.019-1.02-3.17-7.709-3.17-7.709-.679-2.834 3.623-3.967 4.416-2.607z"/>
            <path fill="#F8EFFC" d="M68.945 81.171L68.606 72.215 50.945 75.276 51.171 90.353z"/>
            <path fill="#5B424F" d="M176.496 74.369S135.174 45.8 110.154 8.389l1.132-.907 45.058 30.496 21.057 35.03-.905 1.36z"/>
            <path fill="#6B4972" d="M104.38 128.785c-11.774 4.308-48.114-1.588-49.36-4.308-1.245-2.721 6.227-16.212 11.435-18.706 7.019-3.4 49.7-16.211 52.87-13.49 3.509 2.947-7.133 33.67-14.945 36.504z"/>
            <path fill="#63436B" d="M57.964 115.634c10.076 2.38 25.133-3.288 34.869-6.915 4.981-1.814 22.982-6.689 25.925-16.779.34.114.566.114.68.227 3.396 2.948-7.133 33.67-14.944 36.504-11.774 4.308-49.36.227-50.606-2.494-.792-1.247 1.246-6.008 4.076-10.543z"/>
            <path fill="#6B4972" d="M96.003 159.28c-3.85-1.133-15.963-4.534-17.095-7.142-1.132-2.607 10.868-44.1 13.585-49.088 1.359-2.494 19.925-21.313 28.076-17.345 3.397 1.7-24.566 73.575-24.566 73.575z"/>
            <path fill="#4F3256" d="M97.248 159.507c-3.85-1.134-15.963-4.535-17.095-7.142-1.132-2.608 10.868-44.1 13.586-49.088 1.358-2.494 19.925-21.313 28.076-17.345 3.396 1.7-24.567 73.575-24.567 73.575z"/>
            <path fill="#93759E" d="M113.664 177.872L99.512 364.134 98.154 364.134 83.663 183.994 85.361 161.888z"/>
            <path fill="#4A3B50" d="M100.418 170.39L116.607 177.986 99.512 364.134 98.493 364.134z"/>
            <path fill="#4A3B50" d="M133.815 180.82L122.268 275.708 133.136 364.134 131.324 364.134 108.456 277.862 99.512 174.585z"/>
            <path fill="#93759E" d="M114.003 177.192L116.154 279.336 132.004 364.134 131.324 364.134 107.663 278.996 96.003 172.431z"/>
            <path fill="#4A3B50" d="M84.795 168.69L116.607 177.986 116.947 191.59 84.455 173.564z"/>
            <path fill="#F8EFFC" d="M135.627 182.634l-2.378 1.927s-28.982-3.514-49.247-14.057l-2.377-5.215 8.038-36.278s3.51-16.098 7.925-23.807 11.208-15.644 19.472-18.478c5.094-1.7 32.491 3.4 32.491 3.4l-14.038 50.335.114 42.173z"/>
            <path fill="#D1C9D4" d="M112.532 177.646s-13.02-13.831-13.02-16.892c0-5.101 4.529-28.568 4.529-28.568l-10.982-2.608-6.906 25.848-2.49.907 6-27.208s3.51-16.098 7.925-23.807c3.849-6.689 9.51-13.604 16.415-17.119-4.981 8.276-8.943 18.592-8.943 18.592l36.114-17.911c4.755.793 8.264 1.473 8.264 1.473L135.4 140.688l.227 42.173-2.378 1.927s-28.982-3.515-49.247-14.058l-.679-1.473 29.209 8.389z"/>
            <path fill="#848084" d="M143.891 89.786L142.985 84.798 116.834 87.632 115.815 98.289z"/>
            <path fill="#848084" d="M109.928 94.435L117.739 88.539 117.173 85.819 113.437 88.313z"/>
            <path fill="#313131" d="M142.872 77.883l19.359-24.714s-3.283-20.18-8.604-21.426c-5.32-1.247-10.755 46.14-10.755 46.14z"/>
            <path fill="#FFB882" d="M141.966 88.54l7.812-29.022-27.85 9.409-4.868 17.912c0-.113 10.642 4.421 24.906 1.7z"/>
            <path fill="#C3BEC4" d="M144.91 88.199L143.778 83.211 117.739 87.066 117.626 95.568z"/>
            <path fill="#C3BEC4" d="M112.079 91.487L117.966 87.406 118.192 82.871 115.022 85.252z"/>
            <path fill="#6B4972" d="M142.306 179.573c-9.397-2.494-38.152-17.005-39.624-19.613-1.472-2.607 10.868-57.023 21.057-66.092 7.02-6.236 17.774-6.349 24.907-5.102 2.377.454 5.66 6.235-.113 19.726-9.17 20.973-2.83 41.265-6.227 71.08z"/>
            <path fill="#583860" d="M143.325 144.77c-4.415-.454-8.944-.68-13.812-.454-9.623.453-18.34 2.38-25.586 5.328 3.51-35.597 21.85-60.764 44.266-57.93 2.377.34 6.113 3.174.34 16.665-5.095 11.903-5.435 23.353-5.208 36.39z"/>
            <path fill="#6B4972" d="M148.533 128.218c-9.737 7.482-47.323 13.717-49.587 11.563-2.15-2.154.793-18.025 4.868-21.88 5.434-5.214 41.775-29.702 45.737-28.115 4.416 1.814 5.435 33.444-1.018 38.432z"/>
            <path fill="#63436B" d="M103.701 118.242c.34-.34.793-.794 1.359-1.248-.114 4.308.34 8.05 1.358 8.956 2.264 1.814 36.228-8.956 46.53-17.458 0 8.616-1.359 17.685-4.642 20.066-9.736 7.482-47.322 14.738-49.473 12.584-2.038-2.154.792-19.046 4.868-22.9z"/>
            <path fill="#6B4972" d="M71.096 76.976s2.717 25.054 2.265 27.888c-.34 2.834-14.605 22.107-17.661 19.613-3.057-2.494-5.887-44.667-5.887-44.667l21.283-2.834z"/>
            <path fill="#63436B" d="M49.926 79.697l10.302-1.36c1.019 35.37 4.189 38.544 8.378 38.884-4.415 5.102-13.36 10.43-14.83 9.183-3.17-2.38-3.85-46.707-3.85-46.707z"/>
            <path fill="#FF9566" d="M98.607 67.226c-1.699-2.38-3.85-4.76-5.321-4.76-1.472 0-4.076.34-4.302 1.02-.227.68 4.98 5.894 6 6.008 1.019.113 4.415-1.02 3.623-2.268z"/>
            <path fill="#FFB882" d="M96.682 81.964c1.472-4.648 4.076-7.255 3.736-9.75-.34-2.493-.906-4.76-2.49-4.534-1.586.113-3.623 4.988-3.623 4.988l2.377 9.296z"/>
            <path fill="#93759E" d="M2.264 54.983c54.681 14.51 29.661 11.45 103.362 12.13v1.474c-73.587.68-48.681-2.38-103.362 12.13V54.983z"/>
            <path fill="#775E80" d="M105.626 67.567v1.02c-73.587.68-48.681-2.38-103.362 12.13V74.37c50.266-9.977 36.228-6.916 103.362-6.802z"/>
            <path fill="#5E4B65" d="M106.078 70.627L105.399 70.627 103.588 67.453 105.399 65.073 106.192 65.073z"/>
            <path fill="#FFB882" d="M98.04 87.406c-2.264-4.762-1.018-6.916.114-9.75 1.585-4.194-3.397-12.357-4.415-14.85-.906-2.495-16.303 2.267-17.888 4.647-1.698 2.38 2.604 14.851 4.189 16.892 1.585 2.04 4.642 8.956 4.642 8.956l13.359-5.895z"/>
            <path fill="#D1C9D4" d="M100.984 93.074L98.267 84.458 82.078 92.281 86.493 106.678z"/>
            <path fill="#6B4972" d="M101.663 89.106s9.736 23.24 10.19 26.075c.452 2.834-8.152 25.96-11.775 24.487-3.622-1.474-17.887-41.72-17.887-41.72l19.472-8.842z"/>
            <path fill="#63436B" d="M91.021 93.868c5.321 12.47 13.586 31.062 16.642 32.082.227.114 3.057-.226 3.397-.34-3.057 7.596-9.963 16.439-12.114 15.532-3.623-1.474-16.868-43.193-16.868-43.193l8.943-4.081z"/>
            <path fill="#F5B137" d="M100.192 365.381H82.078s14.264-6.462 16.189-6.235c1.811.34 1.925 6.235 1.925 6.235zM133.589 365.494h-12.227s8.151-5.895 10.189-5.668c1.924.227 2.038 5.668 2.038 5.668z"/>
            <path fill="#312636" d="M106.871 147.377c.113-1.36.906-2.38 1.698-2.268.906.114 1.472 1.247 1.359 2.495-.114 1.36-.906 2.38-1.699 2.267-.792 0-1.358-1.134-1.358-2.494z"/>
            <path fill="#000" d="M114.456 98.856c-4.415.227-5.32-4.762-4.302-10.997 1.585-.907 3.17-1.587 4.642-2.04l.226-.454 3.057-2.267 3.849-14.058 27.85-9.41-6.34 23.808.453-.113 1.132 4.988-.453.113c1.472.113 2.83.34 4.076.567 1.019.227 2.15 1.36 2.717 3.628-13.585-1.02-30.68 5.895-36.907 6.235z" opacity=".323"/>
            <path fill="#313131" d="M124.645 56.117l-6.34-1.474s4.076-38.091 13.472-36.391c9.397 1.7 3.283 29.362-7.132 37.865z"/>
            <path fill="#FFB882" d="M153.514 48.408c-3.057 11.903-9.283 27.434-10.982 29.362-1.811 1.927-27.397 7.255-28.868 5.328-1.472-1.927 4.641-38.432 6.792-41.946 2.151-3.514 10.076-20.406 15.17-19.952 5.208.453 22.416 9.409 17.888 27.208z"/>
            <path fill="#313131" d="M119.55 45.233c.68.907 3.51 2.04 3.51 2.04s-3.623.681-3.85 1.248c-.792 1.474 4.643-1.36 4.643-1.36-.453-1.134-5.208-3.061-4.302-1.928zM144.797 68.133l-5.774-1.587s4.755-34.577 13.245-32.876c8.491 1.927 2.151 26.981-7.471 34.463z"/>
            <path fill="#FFB882" d="M142.306 72.895c4.755 3.854 13.925 3.06 14.717-3.855.793-6.915-6.226-8.162-9.17-5.895-2.83 2.381-5.547 9.75-5.547 9.75z"/>
            <path fill="#313131" d="M145.589 71.308c2.944 2.38 8.604 1.927 9.17-2.381.453-4.308-3.849-5.102-5.66-3.628-1.925 1.36-3.51 6.009-3.51 6.009z"/>
            <path fill="#FFB882" d="M145.023 71.648c1.925 1.587 5.774 1.247 6.113-1.587.34-2.835-2.603-3.401-3.736-2.381-1.358.907-2.377 3.968-2.377 3.968z"/>
            <g fill="#313131">
                <path d="M11.434 3.598c.113-.34.34-.68.566-.907.34-.227.68-.227 1.02-.113 3.622 1.36 7.245 3.287 8.943 5.668 1.472 2.04-.566 5.782-1.019 5.555-1.359-.68-5.32-2.607-9.51-4.421-.679-.34-1.019-1.02-.905-1.7l.905-4.082zM2.604.197c.34-.113 2.49.114 5.32.907.68.113 1.02.794.906 1.474l-.452 2.607c-.114.68-.566 1.247-1.133 1.587-.566.34-1.358.454-2.037.227-1.585-.567-3.057-1.02-3.963-1.02C-.113 5.752 1.811.537 2.604.197z" transform="translate(116.607 36.08)"/>
            </g>
            <path fill="#313131" d="M125.664 41.379c-5.208 7.482-11.095 18.025-10.415 18.819 1.018 1.36 9.17 2.38 9.17 2.38s2.037-22.446 1.245-21.2z"/>
            <path fill="#FFB882" d="M126.91 41.039c-5.322 7.482-11.095 18.025-10.53 18.819 1.02 1.36 9.17 2.38 9.17 2.38s2.152-22.333 1.36-21.2z"/>
            <path fill="#313131" d="M117.626 67.68c3.396-2.154 9.51-4.988 10.189-1.927.566 3.06.566 4.874-2.83 5.668-3.397.794-8.83-2.834-7.359-3.741z"/>
            <path fill="#FFFAE3" d="M119.777 67.113c2.49-1.587 6.906-3.514 7.245-1.36.114.453.114.907.227 1.36h-7.472z"/>
            <path fill="#313131" d="M128.947 70.06c.906-2.72.453-6.121-2.264-6.801 0 0 2.264-1.814 3.283 1.814.792 2.494-1.019 4.988-1.019 4.988zM136.08 52.035c-1.699-.226-6.114-2.38-6.114-2.38s2.943 3.854 2.717 4.42c-.906 1.475-3.396-5.327-3.396-5.327 1.924-.114 8.943 3.514 6.792 3.287z"/>
            <path fill="#000" d="M121.362 36.39c2.151-9.522 5.66-19.045 10.415-18.138 1.585.34 2.717 1.36 3.51 2.948h.34c2.377.226 7.358 2.267 11.66 6.235L161.1 47.274c.792 3.288 1.132 5.782 1.132 5.782l-7.698 9.863c1.698 1.02 2.943 2.947 2.604 6.121-.227 1.928-1.133 3.401-2.378 4.308l-34.756-37.184c.34.113.793.113 1.359.227z" opacity=".369"/>
            <path fill="#93759E" d="M153.853.907c16.076 6.235 21.51 22.787 21.51 24.827 0 2.04-10.415 21.086-10.415 21.086l-33.397-31.175C138.117 12.81 150.91-.227 153.853.907z"/>
            <path fill="#775E80" d="M149.665 20.18c8.604 0 15.962-3.062 19.472-7.483 4.528 6.009 6.34 11.904 6.226 13.037 0 2.04-10.415 21.086-10.415 21.086l-33.397-31.175c.34-.114.68-.34 1.132-.567 3.962 3.06 10.076 5.101 16.982 5.101z"/>
            <path fill="#93759E" d="M176.496 74.369c-19.7-29.816-37.586-46.708-66.342-65.98l.68-1.814s32.264 9.977 39.397 17.232c13.132 13.264 27.623 49.428 27.623 49.428l-1.358 1.134z"/>
            <path fill="#775E80" d="M153.4 40.585c6.793.34 4.982-7.142-3.735-17.005 1.698 1.02 3.056 2.04 4.075 3.061 13.133 13.264 24.114 46.707 24.114 46.707l-1.245 1.134c-9.17-13.944-18-24.94-27.737-34.804 1.585.454 3.17.794 4.529.907z"/>
            <g>
                <path fill="#3F3144" d="M.566 5.555C2.717 4.081 5.094 2.267 7.472.34c16.19 10.657 24.34 21.88 28.076 28.455-1.132 2.267-2.264 4.421-3.283 6.235C22.982 21.766 8.378 10.77.566 5.555z" transform="translate(134.72 7.936)"/>
                <path fill="#1C161E" d="M14.944 12.244c2.377 0 4.755-.227 6.906-.68 7.132 6.688 11.434 12.923 13.811 17.231-1.132 2.267-2.264 4.421-3.283 6.235-6.566-9.182-15.51-17.345-23.095-23.24 1.812.34 3.623.454 5.66.454z" transform="translate(134.72 7.936)"/>
            </g>
            <path fill="#312636" d="M91.135 100.67c0-1.36 1.132-2.608 2.604-2.608 1.471 0 2.603 1.134 2.603 2.608 0 1.36-1.132 2.607-2.603 2.607-1.472-.113-2.604-1.247-2.604-2.607z"/>
            <ellipse cx="96.003" cy="106.451" fill="#312636" rx="1.811" ry="1.814"/>
            <path fill="#312636" d="M58.19 85.365c.227-1.134 1.472-1.814 2.604-1.587 1.132.34 1.812 1.474 1.585 2.607-.226 1.134-1.472 1.814-2.604 1.588-1.132-.34-1.811-1.474-1.585-2.608zM59.436 90.58c.226-.794 1.019-1.247 1.811-1.134.793.227 1.359 1.02 1.132 1.814-.226.794-1.019 1.247-1.811 1.134-.793-.113-1.359-1.02-1.132-1.814z"/>
            <path fill="#4C3C52" d="M0.922 54.124H3.865V82.806H0.922z" transform="rotate(-180 2.393 68.465)"/>
            <path fill="#4A3B50" d="M99.739 211.316c.113-.34 6.566-1.7 6.566-1.7l-7.698-2.041-8.944-6.576 10.076 10.317z"/>
        </g>
        <g>
            <path fill="#EA7B59" d="M82.553 51.915c-3.97 2.38-4.65.113.34-2.607s6.123.68 6.123.68l.114 3.287c0 .114-3.402-3.287-6.577-1.36z" transform="translate(228.508 42.143)"/>
            <path fill="#FFC6B2" d="M62.935 134.548L100.129 107.117 106.819 112.332 71.78 143.163z" transform="translate(228.508 42.143)"/>
            <path fill="#FFC6B2" d="M106.819 112.332L92.645 58.376 89.81 57.016 98.655 112.672z" transform="translate(228.508 42.143)"/>
            <path fill="#E4A088" d="M79.831 122.08l-16.896 12.468 8.845 8.615 21.545-19.043c-5.103 0-9.752-.793-13.494-2.04z" transform="translate(228.508 42.143)"/>
            <path fill="#F5B137" d="M0 128.768c14.628 14.735 37.42 22.33 70.646-2.834 0 0-11.34-3.174-8.051-21.877 3.288-18.703.113-41.6-12.587-38.313-6.804-8.955-26.081-5.44-33.112 2.04-7.03 7.482-14.401 32.986-7.03 53.729C13.266 130.808 0 128.768 0 128.768z" transform="translate(228.508 42.143)"/>
            <path fill="#FBCA7E" d="M62.708 104.057c1.134-6.348 1.474-13.262 1.02-19.383-6.01 3.174-15.875 3.287-25.967-.227-10.432-3.627-18.257-10.202-20.752-16.55-7.03 7.595-14.287 32.986-6.917 53.73 3.289 9.294-9.979 7.254-9.979 7.254 14.629 14.736 37.421 22.33 70.646-2.834 0 0-11.34-3.287-8.05-21.99z" transform="translate(228.508 42.143)"/>
            <path fill="#C08B2A" d="M70.533 126.16c-15.309-.793-19.391-20.29-31.525-20.29-12.246 0-16.215 32.079-38.1 23.01-.568 0-.908-.112-.908-.112 14.628 14.735 37.307 22.33 70.533-2.608z" transform="translate(228.508 42.143)"/>
            <path fill="#22343D" d="M78.924 148.15l-8.505-20.063s-12.473 8.955-16.102 8.729c-1.814-.114-.794 15.642 2.948 16.322 5.33.794 14.628-2.267 21.659-4.987z" transform="translate(228.508 42.143)"/>
            <path fill="#FFC6B2" d="M2.948 368.393L3.969 368.393 54.317 295.508 38.782 290.294z" transform="translate(228.508 42.143)"/>
            <path fill="#E4A088" d="M25.287 337.901l29.03-42.28-15.535-5.214-22.113 48.288c2.949-.567 5.783-.794 8.618-.794z" transform="translate(228.508 42.143)"/>
            <path fill="#FFC6B2" d="M125.076 370.093L126.097 370.093 85.728 287.8 63.956 282.019z" transform="translate(228.508 42.143)"/>
            <path fill="#E4A088" d="M113.056 352.41c1.474 0 2.949.114 4.423.227L85.728 287.8l-21.772-5.78 48.873 70.39h.227z" transform="translate(228.508 42.143)"/>
            <path fill="#3D4E56" d="M19.39 330.987l71.894-35.026s-42.977-72.205-36.287-90c6.69-17.797 10.32-30.493 10.32-30.493l-25.628-15.302s3.515 29.245-3.856 37.86c-7.37 8.614-22.792 10.428-25.74 26.07-3.856 19.724 18.596 50.329 20.184 62.57 2.268 17.23-10.886 44.321-10.886 44.321z" transform="translate(228.508 42.143)"/>
            <g>
                <path fill="#22343D" d="M14.401 51.235c15.762 0 28.576 26.184 28.576 58.49 0 22.443-6.237 42.053-15.308 51.801l52.162-25.39S36.854 63.93 43.544 46.133c6.69-17.796 10.32-30.491 10.32-30.491L28.235.34S31.75 29.585 24.38 38.2C18.143 45.454 6.123 47.948.794 58.036c4.195-4.307 8.731-6.801 13.607-6.801z" transform="translate(228.508 42.143) translate(11.34 159.826)"/>
                <path fill="#3D4E56" d="M9.752 167.42c-1.02 2.268-1.7 3.628-1.7 3.628l5.896-2.834c-1.361 0-2.835-.34-4.196-.794z" transform="translate(228.508 42.143) translate(11.34 159.826)"/>
            </g>
            <path fill="#3D4E56" d="M35.833 139.083c-2.835 8.388 8.392 38.993 9.98 41.826 1.587 2.834 28.915-2.72 30.73-4.647 1.7-1.927-15.763-37.406-19.278-38.766-3.515-1.474-20.071-2.72-21.432 1.587z" transform="translate(228.508 42.143)"/>
            <path fill="#FFB882" d="M38.668 137.042L37.421 117.432 46.266 117.886 51.936 139.423z" transform="translate(228.508 42.143)"/>
            <path fill="#22343D" d="M63.615 146.677c-1.134 12.129-6.35 21.31-12.587 21.31-7.03 0-12.813-11.675-12.813-26.07 0-1.7.113-3.288.226-4.875-1.36.454-2.38 1.134-2.721 2.04-2.835 8.389 8.391 38.994 9.979 41.827 1.587 2.834 28.916-2.72 30.73-4.647 1.248-1.36-6.577-18.476-12.814-29.585z" transform="translate(228.508 42.143)"/>
            <path fill="#22343D" d="M43.884 171.955l15.082-3.628s-13.948-26.75-18.143-26.864c-5.103-.113-4.423 12.015 3.061 30.492z" transform="translate(228.508 42.143)"/>
            <path fill="#382C3C" d="M144.013 371.114L145.147 371 139.251 333.821 134.148 333.594z" transform="translate(228.508 42.143)"/>
            <path fill="#775E80" d="M157.054 191.451c1.134-32.985-32.998-75.492-61.801-71.525-28.803 3.967-45.018 53.502-31.524 84.447 24.267 1.134 28.122 30.038 4.65 35.593-4.99 13.262-6.465 28.904-3.29 45.34 7.938 40.807 41.617 63.704 75.069 65.404 29.03-9.068 54.317-41.486 46.38-82.293-3.176-16.323-10.433-30.832-20.185-42.054-24.607 1.02-31.865-27.317-9.299-34.912z" transform="translate(228.508 42.143)"/>
            <g>
                <path fill="#93759E" d="M94.46 65.857C91.397 34.12 59.76-2.833 32.884.907 18.937 2.834 7.825 15.529 1.815 31.625l92.644 34.232zM2.381 133.188c-2.04 10.315-2.04 21.424.227 32.986 7.938 40.806 41.617 63.703 75.069 65.404 21.772-6.802 41.39-26.751 46.606-53.502L2.38 133.188z" transform="translate(228.508 42.143) translate(62.368 119.02)"/>
                <g>
                    <path fill="#BB8FCC" d="M77.987 80.706c-8.164 11.222.454 28.565 19.618 27.772 9.752 11.221 17.01 25.73 20.185 42.053 4.082 21.197-.794 40.24-10.433 54.749 10.206-14.736 15.422-34.119 11.226-55.882-3.175-16.323-10.432-30.832-20.184-42.054-18.71.794-27.329-15.416-20.412-26.638z" transform="translate(228.508 42.143) translate(62.368 119.02) translate(5.472)"/>
                    <path fill="#AF6482" d="M13.011 113.238c-2.608 3.514-6.69 6.348-12.587 7.708l-.34 1.02c6.237-1.586 10.433-4.874 12.927-8.728z" transform="translate(228.508 42.143) translate(62.368 119.02) translate(5.472)"/>
                    <path fill="#BB8FCC" d="M26.619 1.927c28.576-3.967 62.368 37.86 61.8 70.731.228-.113.454-.226.681-.226C90.234 39.446 56.102-3.06 27.3.907 17.32 2.267 8.815 9.18 2.464 18.93 8.815 9.748 16.98 3.287 26.62 1.927z" transform="translate(228.508 42.143) translate(62.368 119.02) translate(5.472)"/>
                </g>
            </g>
            <g fill="#382C3C">
                <path d="M95.82 13.602c-12.247 4.194-15.649 14.396-12.36 22.784-.794-7.255 3.288-14.963 13.494-18.476.227-5.668-.68-11.562-2.381-17.457.907 4.534 1.36 8.955 1.247 13.15zM22.68 43.074c-.908-8.162-7.938-15.87-20.299-16.436-.907-2.04-1.587-4.081-2.268-6.121.794 3.627 1.928 7.14 3.289 10.428 10.206.453 16.783 5.781 19.277 12.129zM126.324 94.989c-.454-2.38-1.02-4.648-1.588-6.915.227.907.34 1.7.567 2.607 7.938 40.807-17.236 73.226-46.266 82.294-31.524-1.587-63.275-22.104-73.48-58.49 8.844 39.22 42.863 63.25 75.521 64.95 29.03-9.18 53.183-43.64 45.246-84.446z" transform="translate(228.508 42.143) translate(60.1 173.428)"/>
            </g>
            <path fill="#775E80" d="M78.47 16.323L71.893 17.229 96.047 159.939 110.788 157.786z" transform="translate(228.508 42.143)"/>
            <path fill="#382C3C" d="M89.47 264.563c-1.02-10.882-.907-21.537-.114-30.605 4.99-4.42 3.63-23.69-1.587-23.917-1.701-10.089-1.928-23.577-1.02-34.913-1.588 10.882-1.815 26.071.113 36.953 4.536.113 5.67 16.89 1.36 20.743-.68 7.822-.793 17.003.114 26.525.567 6.234 1.474 11.788 2.608 16.436-.68-3.4-1.134-7.141-1.474-11.222zM152.291 256.175c-2.494-11.222-6.123-21.764-10.092-30.492-7.37-2.38-12.247-22.103-6.01-24.37-1.36-10.769-5.556-24.144-10.546-35.14 5.557 10.089 10.886 25.278 12.247 36.84-5.443 1.927-1.134 19.043 5.216 21.197 3.516 7.48 6.577 16.662 8.732 26.41 1.474 6.462 2.268 12.243 2.495 17.343-.454-3.627-1.134-7.594-2.042-11.788z" transform="translate(228.508 42.143)"/>
            <path fill="#E0D8E3" d="M125.53 311.491L72.914 16.096 73.254 16.096 125.87 311.377z" transform="translate(228.508 42.143)"/>
            <path fill="#E0D8E3" d="M104.362 12.591L104.362 12.591 104.385 312.07 104.385 312.07z" transform="translate(228.508 42.143) rotate(-11.216 104.373 162.33)"/>
            <path fill="#E0D8E3" d="M140.838 308.09L77.223 15.416 77.563 15.302 141.179 308.09z" transform="translate(228.508 42.143)"/>
            <path fill="#775E80" d="M73.481 40.353L85.614 38.653 83.346 0.34 61.234 3.401z" transform="translate(228.508 42.143)"/>
            <path fill="#FFC6B2" d="M33.679 161.413l62.028 75.039 1.7-2.72-53.976-80.367s-10.206 2.834-9.752 8.048z" transform="translate(228.508 42.143)"/>
            <path fill="#E4A088" d="M58.059 175.468l-14.515-22.103s-10.205 2.834-9.752 8.048l10.092 12.128c4.083-.113 8.845.567 14.175 1.927z" transform="translate(228.508 42.143)"/>
            <path fill="#3D4E56" d="M33.565 168.214l19.05-5.328s-9.411-25.844-13.607-25.957c-5.216 0-12.927 12.809-5.443 31.285z" transform="translate(228.508 42.143)"/>
            <path fill="#FFC6B2" d="M91.738 62.684c-1.474.566-6.01-6.121-6.01-6.121l1.134-10.202s4.762 6.688 5.783 11.448c.567 2.72.227 4.534-.907 4.875z" transform="translate(228.508 42.143)"/>
            <path fill="#22343D" d="M121.22 370.093h16.216s-13.947-8.16-15.875-7.82c-1.814.34-.34 7.82-.34 7.82zM.227 370.093h9.072s-1.475-7.14-3.516-6.8c-1.814.34-5.556 6.8-5.556 6.8z" transform="translate(228.508 42.143)"/>
            <path fill="#FFC6B2" d="M81.532 57.923c-3.062 3.514-4.536 1.133-.227-2.607 4.196-3.741 6.124.566 6.124.566l-.794 1.587s-1.928-3.174-5.103.454z" transform="translate(228.508 42.143)"/>
            <path fill="#FFC6B2" d="M81.759 53.615c-3.062 3.514-4.536 1.134-.227-2.607 4.196-3.74 6.123.567 6.123.567l-.793 1.587s-2.041-3.287-5.103.453z" transform="translate(228.508 42.143)"/>
            <path fill="#FFC6B2" d="M81.532 49.308c-3.062 3.514-4.536 1.134-.227-2.607 4.196-3.74 6.124.567 6.124.567l-.794 1.587s-1.928-3.288-5.103.453z" transform="translate(228.508 42.143)"/>
            <path fill="#C195D1" d="M113.85 311.377L152.178 304.236 152.858 307.637 113.737 317.045z" transform="translate(228.508 42.143)"/>
            <path fill="#93759E" d="M69.852 29.585l3.629 10.768 12.133-1.7-.68-11.335c-4.536 2.267-9.866 3.06-15.082 2.267z" transform="translate(228.508 42.143)"/>
            <path fill="#FFC6B2" d="M95.026 230.897c2.949.34 6.124 1.927 6.804 2.494.68.567 2.948 2.607 2.948 3.06 0 .454-1.247.454-3.515-1.36-1.36-1.133-4.763-1.02-4.763-1.02l-1.474-3.174z" transform="translate(228.508 42.143)"/>
            <path fill="#FFC6B2" d="M101.036 239.512c.34-.453-.68-1.813-1.7-3.74-1.021-1.927-3.062-5.441-6.238-7.708l-2.608 1.813c1.815 2.267 2.495 7.141 2.949 8.615.567 1.36 6.803 2.04 7.597 1.02z" transform="translate(228.508 42.143)"/>
            <path fill="#FFC6B2" d="M93.439 238.379c1.02 2.38 2.154 3.854 2.835 4.194.68.34 3.061 1.473 3.401 1.36.454-.113-.226-.907-2.38-2.04-1.475-.794-2.269-3.174-2.269-3.174l-1.587-.34z" transform="translate(228.508 42.143)"/>
            <path fill="#FFC6B2" d="M95.82 239.285c1.588 2.04 3.175 3.174 3.855 3.401.794.227 3.516.907 3.856.68.454-.227-.454-1.02-2.948-1.7-1.588-.454-3.062-2.607-3.062-2.607l-1.701.226zM98.428 238.265c1.588 2.04 3.175 3.174 3.856 3.4.793.228 3.515.908 3.855.681.454-.227-.454-1.02-2.948-1.7-1.588-.454-3.062-2.607-3.062-2.607l-1.7.226z" transform="translate(228.508 42.143)"/>
            <path fill="#000" fill-opacity=".371" d="M56.018 152.118c4.536-.567 4.309-8.728 3.062-16.663-2.042.794-3.743 1.36-4.763 1.247-.907-.113-2.041-.34-3.175-.453l-4.763-18.477-8.845-.566 1.248 19.61c-.794.226-1.475.566-1.928.906 0 0-.114 0-.114.114l-.113.113c5.783 5.668 13.38 14.962 19.39 14.169z" opacity=".6" transform="translate(228.508 42.143)"/>
            <path fill="#FFC6B2" d="M32.318 106.097c3.515 15.076 9.298 24.257 26.648 25.391 0 0 6.577-18.703 6.01-27.885-1.134-16.776-7.03-29.698-14.628-26.864-4.536 1.7-20.525 18.476-18.03 29.358z" transform="translate(228.508 42.143)"/>
            <path fill="#FBCA7E" d="M37.194 116.299c-.113-10.088-.454-18.476 2.948-24.938 3.402-6.46 12.247-11.448 8.278-15.529-4.082-4.08-23.926 5.214-23.133 20.857.794 15.643 11.907 19.61 11.907 19.61z" transform="translate(228.508 42.143)"/>
            <path fill="#FFB882" d="M32.998 117.092c-5.67-1.587-9.185-5.894-6.123-11.675 2.948-5.667 9.185 5.781 9.752 9.522.567 3.854-1.587 2.72-3.629 2.153z" transform="translate(228.508 42.143)"/>
            <path fill="#EA7B59" d="M32.658 115.392c-3.855-1.133-6.123-3.967-4.195-7.821 1.927-3.854 6.123 3.854 6.577 6.46.34 2.495-1.021 1.701-2.382 1.361z" transform="translate(228.508 42.143)"/>
            <path fill="#FFB882" d="M34.019 115.959c-2.381-.68-3.742-2.494-2.495-4.761 1.248-2.38 3.856 2.38 4.082 3.967.114 1.474-.793 1.02-1.587.794z" transform="translate(228.508 42.143)"/>
            <path fill="#F5B137" d="M50.802 72.092c-2.722-2.38-8.732-1.36-13.495 2.267-4.649 3.74-6.35 8.614-3.515 10.995 2.722 2.38 8.732 1.36 13.494-2.267 4.65-3.627 6.237-8.615 3.516-10.995z" transform="translate(228.508 42.143)"/>
            <path fill="#EFA986" d="M54.884 109.384c-.34-.34-.68-.226-.907 0 1.7 1.927 3.288 4.988-.567 4.761.113.114.227.227.453.227 4.99.68 2.835-3.06 1.02-4.988z" transform="translate(228.508 42.143)"/>
            <path fill="#4F322C" d="M49.894 103.037c-.226-2.494-1.587-4.421-3.061-4.308-1.474.114-2.382 2.267-2.155 4.761.227 2.494 1.588 4.42 3.062 4.307 1.36-.226 2.381-2.267 2.154-4.76zM61.801 102.81c-.113-2.494-1.36-4.534-2.835-4.42-1.474.113-2.608 2.153-2.495 4.647.114 2.493 1.361 4.534 2.835 4.42 1.474 0 2.608-2.04 2.495-4.647z" transform="translate(228.508 42.143)"/>
            <path fill="#4F322C" d="M41.843 102.923c1.701-2.493 5.67-4.194 8.505-3.514 0 0-1.02-2.153-4.422-1.133-2.835.907-4.083 4.647-4.083 4.647z" transform="translate(228.508 42.143)"/>
            <path fill="#93373E" d="M38.328 100.543c3.175-3.854 9.752-6.008 14.288-4.534 0 0-1.247-3.627-7.03-2.38-4.65.906-7.258 6.914-7.258 6.914z" transform="translate(228.508 42.143)"/>
            <path fill="#4F322C" d="M62.935 102.47c-1.247-2.494-4.65-4.08-7.257-3.4 0 0 1.474-1.928 4.422-.907 2.155.566 2.835 4.307 2.835 4.307z" transform="translate(228.508 42.143)"/>
            <path fill="#93373E" d="M64.182 97.256c-2.04-2.607-6.35-3.287-9.185-1.36 0 0 1.248-3.06 4.876-3.06 2.495 0 4.31 4.42 4.31 4.42z" transform="translate(228.508 42.143)"/>
            <path fill="#472824" d="M48.42 117.206l9.299 1.587s-1.361 6.574-4.65 6.574c-3.742-.227-4.649-8.161-4.649-8.161z" transform="translate(228.508 42.143)"/>
            <path fill="#FFF4DC" d="M55.45 121.173c.454-1.134.681-2.154.681-2.154l-7.144-1.247s.114 1.134.567 2.494l5.897.907z" transform="translate(228.508 42.143)"/>
        </g>
        <g transform="translate(0 73.984)">
            <path fill="#E4A088" d="M59.904 131.788c-1.022-1.586-6.354-6.232-6.921-6.686-.794-.566-2.837.907-2.723 1.587.227.906 3.63 5.78 4.652 6.12 1.02.339 4.992-1.02 4.992-1.02z"/>
            <path fill="#E0D8E3" d="M100.974 170.543c11.005-3.06 11.345-12.918 11.345-12.918l4.765-19.718s-14.635-47.48-18.72-41.814c-6.92 9.519-6.353 42.494-6.353 42.494l-3.744 12.239c.227 0 5.105 21.87 12.707 19.717z"/>
            <path fill="#B8B3BA" d="M93.486 140.06l-3.63 13.032s2.268 9.292 6.012 15.411c-4.651-5.213-7.374-17.564-7.374-17.564l2.95-13.032s.227-32.182 7.147-41.7l.227-.227c-6.694 10.878-5.332 44.08-5.332 44.08z"/>
            <path fill="#B8B3BA" d="M97.116 166.35c11.8-5.44 14.522-17.224 12.82-55.186 1.022 3.287 8.17 29.803 8.17 29.803l-4.199 18.697s-1.928 9.746-12.933 12.692c-3.064.793-5.673-2.493-7.715-6.686 1.134.793 2.496 1.36 3.857.68z"/>
            <path fill="#775E80" d="M97.457 176.435c12.48-.68 18.72-23.343 4.197-32.069-4.765-2.832-9.87.454-11.572 2.72-4.765 6.006-8.85 14.051-5.9 19.717 1.362 2.607 7.148 9.972 13.275 9.632z"/>
            <path fill="#7F3232" d="M140.91 69.124l2.95.566-.795 2.833-4.652-.226c.908-3.173 2.496-3.173 2.496-3.173z"/>
            <path fill="#313131" d="M87.813 39.095l22.918 25.27c-.794 0-13.728 7.252-31.767-12.352l8.85-12.918z"/>
            <path fill="#4A3B50" d="M99.272 334.513s26.208-99.04 23.598-162.837l20.876-1.586v-.114l34.603-9.745 58.882 176.775h-2.042l-72.497-130.202-9.416 1.813c-7.148 26.63-21.783 67.651-51.962 125.783h-2.042v.113z"/>
            <path fill="#382C3C" d="M159.63 173.262c-15.09 1.813-28.25 5.893-36.533 10.766 0-4.193 0-8.273-.113-12.239l20.875-1.586v-.113l34.604-9.746 3.97 12.125c-6.92-.453-14.635-.226-22.804.793zM101.087 327.6c16.224-30.708 38.347-89.86 43-121.476 4.197-.34 8.622-.906 13.16-1.586 4.992-.793 9.757-1.813 14.295-2.833 10.778 31.842 40.162 89.294 61.946 124.196l3.743 11.218h-2.042l-72.497-128.388-8.735 1.813c-7.148 26.63-22.464 65.837-52.53 123.97h-2.042c-.113 0 .568-2.494 1.702-6.913z"/>
            <path fill="#E0D8E3" d="M177.215 161.477l3.403-6.232s-11.686-32.409-11.912-33.089c-.227-.68-2.043-13.371-2.043-13.371s-4.424-33.882-6.693-35.922c-2.27-2.04-34.263-4.08-40.05-1.36-5.786 2.72-19.173 19.378-21.215 24.704-2.043 5.325 8.736 35.468 8.736 35.468l7.601 5.1-.454 10.651s3.517 25.95 8.85 27.083c1.701.34 7.147 1.133 14.295-.34.227 0 .567-2.04.794-2.04 1.588-.34 2.95-.68 4.538-1.02.227-.113.794 1.813 1.021 1.7 13.728-3.286 30.065-9.292 33.129-11.332z"/>
            <path fill="#B8B3BA" d="M106.873 127.142l8.623 8.046.227 9.972s3.517 25.95 8.85 27.083c1.7.34 7.147 1.133 14.294-.34.227 0 .567-2.04.794-2.04 1.589-.34 2.95-.68 4.539-1.02.226-.113.794 1.813 1.02 1.7 13.955-3.173 30.293-9.179 33.356-11.219l2.156-3.966-3.404 6.233c-2.95 2.04-19.4 8.045-33.355 11.218-.227.113-.795-1.813-1.021-1.7-1.702.34-3.064.794-4.539 1.02-.227 0-.567 2.04-.794 2.04-7.147 1.473-12.593.68-14.295.34-5.332-1.133-9.417-27.083-9.417-27.083l.114-10.312-7.148-9.972z"/>
            <path fill="#B8B3BA" d="M120.26 158.644c3.291-30.482 15.998-58.811 45.61-54.165.226 1.7 2.495 17.11 2.722 17.677.227.68 11.913 33.089 11.913 33.089l-3.404 6.232c-2.95 2.04-19.4 8.046-33.355 11.219-.227.113-.794-1.813-1.021-1.7-1.702.34-3.064.793-4.539 1.02-.226 0-.567 2.04-.794 2.04-7.147 1.473-12.593.68-14.295.34-1.248-.227-2.269-1.814-3.29-3.967-.113-3.739 0-7.705.454-11.785z"/>
            <path fill="#E0D8E3" d="M214.768 112.524c2.496-15.75-47.991-40.907-56.387-40.68-6.24.226 2.95 34.334 2.95 34.334s26.435 8.386 31.994 10.992c4.765 2.38 20.535 1.813 21.443-4.646z"/>
            <path fill="#B8B3BA" d="M189.694 105.725c4.312 2.04 21.67 8.499 24.96 3.513.34 1.133.34 2.266.227 3.286-1.021 6.46-15.997 9.179-20.875 6.8-5.446-2.607-33.242-11.106-33.242-11.106s-.114-7.139-1.248-12.238c6.694 2.72 25.413 7.479 30.178 9.745z"/>
            <path fill="#775E80" d="M218.285 118.757c7.147-15.638-29.725-38.868-36.986-5.553 0 0 12.253 15.751 23.371 14.958 2.95-.227 11.119-3.74 13.615-9.405z"/>
            <path fill="#B8B3BA" d="M163.827 146.066l5.332-3.286c-4.538-21.19-3.403-54.506-24.392-72.41h-4.085c21.216 18.018 19.288 57.452 23.145 75.696z"/>
            <g>
                <path fill="#775E80" d="M30.179 96.093l4.084-.906C28.023 66.517 34.15 24.363 5.786.113H.226c28.591 24.25 24.62 71.277 29.953 95.98z" transform="translate(140.682 69.124)"/>
                <path fill="#382C3C" d="M30.179 96.093c-3.29-15.298-3.064-39.208-9.19-60.965 1.929.227 3.744.907 5.56 1.7 4.65 19.83 4.083 41.474 7.714 58.359l-4.084.906z" transform="translate(140.682 69.124)"/>
            </g>
            <g>
                <path fill="#775E80" d="M37.44 89.974l4.424-1.02C36.305 64.024 22.691 19.831 5.56.114L.794 4.872c16.564 18.81 31.2 60.511 36.646 85.101z" transform="translate(100.974 82.722)"/>
                <path fill="#382C3C" d="M37.44 89.974c-2.496-11.105-6.808-25.61-12.253-39.888.794-2.946 1.815-5.552 2.836-7.705 6.24 16.657 11.118 34.108 13.841 46.573l-4.424 1.02z" transform="translate(100.974 82.722)"/>
            </g>
            <path fill="#FFC6B2" d="M118.105 64.704l21.67 5.553s5.446 28.216 5.446 29.689l-36.306-18.47 9.19-16.772z"/>
            <path fill="#FFC6B2" d="M135.01 69.124l-14.068-17.565-22.237 4.646s6.126 12.465 11.345 23.57l24.96-10.651z"/>
            <path fill="#775E80" d="M131.947 140.4c-1.135-16.884 10.891-30.595 26.888-30.595 15.997 0 29.838 13.711 30.973 30.595 1.134 16.885-10.892 30.596-26.889 30.596s-29.838-13.711-30.972-30.596z"/>
            <path fill="#93759E" d="M133.989 139.834c-1.021-16.431 10.437-29.803 25.754-29.803 15.316 0 28.477 13.372 29.611 29.803 1.021 16.43-10.438 29.802-25.754 29.802s-28.477-13.258-29.611-29.802z"/>
            <path fill="#775E80" d="M9.417 124.536L143.292 136.094 143.292 142.327 9.417 130.768z"/>
            <path fill="#F8EFFC" d="M136.371 139.607c-1.02-15.071 9.757-27.31 23.939-27.31s26.548 12.239 27.57 27.31c1.02 15.071-9.758 27.31-23.94 27.31-14.295 0-26.661-12.239-27.569-27.31z"/>
            <path fill="#EAB9B9" d="M178.916 120.23c5.106 4.986 8.396 11.785 8.963 19.377.114 1.587 0 3.173-.113 4.646-18.72 19.604-33.696.68-34.49-7.366 7.715-2.153 20.421-7.705 25.64-16.657z"/>
            <path fill="#775E80" d="M163.033 165.443v-1.36c1.361 0 2.836 0 4.084-.226l.227 1.36c-1.248.226-2.382.34-3.63.34-.227-.114-.454-.114-.681-.114zm-8.623-1.813l.568-1.246c1.248.567 2.61.906 3.97 1.246l-.34 1.36c-1.361-.34-2.836-.793-4.198-1.36zm16.791-.906c1.248-.453 2.496-1.133 3.744-1.813l.795 1.133c-1.248.793-2.61 1.473-3.971 1.926l-.568-1.246zm-24.165-3.74l.907-1.02c1.022.907 2.156 1.814 3.29 2.494l-.794 1.133c-1.134-.794-2.269-1.7-3.403-2.607zm31.086-.566c1.021-.907 1.929-2.04 2.723-3.06l1.135.793c-.908 1.247-1.816 2.267-2.95 3.287l-.908-1.02zm-36.645-6.233l1.248-.68c.68 1.247 1.475 2.38 2.382 3.4l-1.02.907c-1.022-1.134-1.816-2.38-2.61-3.627zm41.524-.453c.567-1.246 1.02-2.493 1.475-3.853l1.361.34c-.34 1.473-.908 2.833-1.475 4.08l-1.361-.567zM138.3 144.14l1.361-.34c.34 1.36.681 2.72 1.248 3.966l-1.248.567c-.68-1.474-1.02-2.833-1.361-4.193zm46.856-.34c.114-.793.114-1.587.114-2.38 0-.566 0-1.133-.114-1.813l.681-.113h.68c0 .566.114 1.246.114 1.813 0 .793 0 1.7-.113 2.493h-1.362zm-47.537-4.193c0-.566-.113-1.246-.113-1.813 0-.907 0-1.7.113-2.606l1.362.113c-.114.793-.114 1.586-.114 2.38v1.813h-.68l-.568.113zm45.722-8.045l1.248-.567c.567 1.36 1.021 2.72 1.248 4.193l-1.361.34c-.227-1.36-.681-2.72-1.135-3.966zm-44.928-.567c.34-1.473.908-2.833 1.475-4.08l1.248.567c-.567 1.247-1.02 2.493-1.475 3.853l-1.248-.34zm40.73-6.686l1.021-.906c.908 1.133 1.816 2.38 2.496 3.626l-1.248.68c-.567-1.133-1.361-2.267-2.269-3.4zm-36.872-1.246c.907-1.247 1.815-2.267 2.95-3.286l.907 1.02c-1.02.906-1.928 1.926-2.723 3.059l-1.134-.793zm30.632-4.193l.794-1.133c1.248.793 2.383 1.7 3.518 2.606l-.908 1.02c-1.135-.907-2.156-1.813-3.404-2.493zm-24.279-1.813c1.248-.793 2.61-1.473 3.971-1.926l.454 1.36c-1.248.453-2.496 1.133-3.744 1.812l-.68-1.246zm16.678-1.36l.34-1.36c1.475.34 2.837.794 4.198 1.36l-.567 1.247c-1.362-.567-2.61-1.02-3.971-1.247zm-8.51-1.7c1.476-.226 2.95-.34 4.426-.226v1.36c-1.362 0-2.837 0-4.085.226l-.34-1.36z"/>
            <ellipse cx="166.694" cy="140.159" fill="#AF6868" rx="5.445" ry="6.007" transform="rotate(-25.371 166.694 140.159)"/>
            <path fill="#7F4040" d="M162.125 140.06c-.113-2.38 1.589-4.306 3.744-4.306 2.27 0 4.198 1.927 4.311 4.306.114 2.38-1.588 4.306-3.744 4.306-2.269 0-4.197-1.926-4.31-4.306z"/>
            <path fill="#F8EFFC" d="M9.417 123.176L144.994 134.734 136.371 140.287 9.417 129.409z"/>
            <path fill="#FFC6B2" d="M88.04 168.276c-4.538-1.36-26.435-25.61-28.25-30.369.567-1.586 1.929-2.72 1.929-2.72s38.007 6.686 40.843 11.56c6.353 10.99 3.29 26.742-14.522 21.53z"/>
            <path fill="#F5B137" d="M234.509 339.272h22.463s-19.287-6.572-22.35-6.119c-3.177.454-.113 6.12-.113 6.12zM100.406 339.272H87.36s10.438-8.498 13.501-8.045c3.177.453-.454 8.045-.454 8.045z"/>
            <path fill="#382C3C" d="M157.474 172.469L160.537 196.832 158.381 197.286 151.461 172.696z"/>
            <path fill="#382C3C" d="M145.334 173.716L155.658 173.376 155.658 178.702 148.511 179.721z"/>
            <path fill="#231B25" d="M148.284 173.036L154.864 172.016 155.545 175.529 149.078 176.549z"/>
            <path fill="#93759E" d="M0.227 120.343L19.514 122.723 18.493 132.921 0.113 132.695z"/>
            <path fill="#000" d="M134.443 97.34c-13.048 1.813-25.754.906-35.625-1.813.794-1.587 2.27-3.966 4.198-6.573-.34-.453-.794-.906-1.135-1.36l4.765-4.759c.227.227.454.453.568.68l1.701-2.04 1.022-1.813c-4.085-8.839-8.736-18.47-10.552-21.983 5.9-2.267 12.707-4.08 20.195-5.1.68-.113 1.248-.113 1.929-.226l13.387 16.77 4.425 1.134c.794-1.02 1.588-1.133 1.588-1.133h5.56c.68.566 1.248 1.133 1.815 1.7 3.97.34 7.374.793 9.53 1.246.227-.113.454-.227.68-.227 2.497-.113 8.51 2.04 15.77 5.44-4.424 9.178-19.74 17.337-39.821 20.057z" opacity=".215"/>
            <path fill="#313131" d="M109.37 47.48L98.363 15.185c.681.226 15.543-1.247 24.28 23.91l-13.275 8.385z"/>
            <path fill="#FFC6B2" d="M135.69 58.132c.454 2.153-18.379 13.485-25.073 8.839-2.042-1.474-26.208-21.304-26.548-23.91-.34-2.607 13.728-22.55 18.266-24.137 4.538-1.586 30.406 24.817 33.356 39.208z"/>
            <path fill="#313131" d="M99.953 57.792c0-.34 3.403-3.74 3.403-3.74s-14.181-16.317-19.74-15.297c-5.56 1.02 7.374 16.77 7.374 16.77l8.963 2.267z"/>
            <path fill="#FFC6B2" d="M101.881 58.245c2.496-1.36 2.383-3.74-1.815-4.646-4.084-.906-13.047-1.926-12.366 1.587 1.815 7.479 9.643 5.439 14.181 3.06z"/>
            <path fill="#313131" d="M100.18 57.565c1.588-.793 1.474-2.266-1.135-2.833-2.61-.566-7.942-1.133-7.488.907 1.021 4.646 5.786 3.4 8.623 1.926z"/>
            <path fill="#FFC6B2" d="M101.2 56.999c.908-.454.795-1.247-.567-1.587-1.475-.34-4.538-.68-4.197.567.453 2.493 3.176 1.813 4.765 1.02z"/>
            <path fill="#E4A088" d="M102.789 147.2c6.013 11.104 3.744 28.215-13.841 23.003-4.539-1.36-27.456-27.65-29.158-32.409.114-.34.227-.567.454-.907 32.107 44.648 45.608 27.99 42.545 10.312z"/>
            <path fill="#7F4040" d="M91.712 47.468L91.712 47.468 91.73 223.32 91.73 223.32z" transform="rotate(-85.135 91.72 135.394)"/>
            <path fill="#7F4040" d="M93.878 48.09L93.878 48.09 93.895 219.63 93.895 219.63z" transform="rotate(-85.138 93.887 133.86)"/>
            <path fill="#382C3C" d="M179.711 139.72L179.711 139.38 14.976 125.216 14.976 125.556z"/>
            <path fill="#FFC6B2" d="M63.874 140.4c-2.836-1.02-11.572-1.813-12.706-2.38-1.135-.566-2.837-3.059-2.723-4.079.113-1.02 7.601 1.02 14.408-.68 1.135-.226 6.694 3.4 6.694 3.4l-5.673 3.74z"/>
            <path fill="#FFC6B2" d="M63.76 133.941c-2.268-1.02-2.949-4.646-3.062-5.552-.114-.794-2.837-1.473-3.404-.34-.567 1.133.908 5.779 1.588 6.346.908.566 4.879-.454 4.879-.454zM58.315 134.508c-2.269-1.247-2.382-4.986-2.496-5.78 0-.793-2.723-1.7-3.29-.566-.68 1.133.34 5.893 1.021 6.46.567.566 4.765-.114 4.765-.114z"/>
            <path fill="#FFC6B2" d="M54.685 136.094c-2.61-1.133-4.312-5.666-4.652-6.685-.34-1.02-3.29-1.7-3.404-.227-.226 1.473 2.61 7.026 3.517 7.705.795.68 4.539-.793 4.539-.793z"/>
            <path fill="#382C3C" d="M5.332 128.049c0 .68-.567 1.133-1.134 1.133-.68 0-1.135-.567-1.135-1.133 0-.68.568-1.133 1.135-1.133.567-.114 1.134.453 1.134 1.133z"/>
            <ellipse cx="8.509" cy="126.462" fill="#382C3C" rx="1.135" ry="1.133"/>
            <path fill="#382C3C" d="M15.997 125.216c0 .68-.567 1.133-1.135 1.133-.68 0-1.134-.567-1.134-1.133 0-.68.567-1.133 1.134-1.133.568-.114 1.135.453 1.135 1.133z"/>
            <path fill="#CC8787" d="M178.675 138.072L180.717 138.072 180.716 143.851 178.674 143.852z" transform="rotate(-173.362 179.696 140.962)"/>
            <path fill="#FFC6B2" d="M210.91 123.97c-2.496 3.965-33.015 16.317-38.007 16.77-3.63.34-2.95-4.306-2.95-4.306s13.388-30.256 20.082-34.108c11.005-6.233 30.519 5.779 20.875 21.643z"/>
            <path fill="#E4A088" d="M191.963 101.532c11.46-4.079 30.406 7.593 21.216 22.55-2.496 3.967-32.674 15.638-37.666 16.092-1.475.113 58.201-30.823 16.45-38.642zM170.861 145.16c-1.929 1.586-4.765 1.926-5.9 1.473-1.247-.453-2.609-2.833-2.269-3.4.34-.566 1.702-1.133 2.27-.793.453.34 1.134 1.7 1.815 1.7.68 0 2.269-1.473 2.723-1.7.453-.227 2.269 1.926 1.361 2.72z"/>
            <path fill="#E4A088" d="M167.911 144.933c-1.588 1.473-3.97 1.813-4.992 1.36-1.02-.453-2.382-2.72-2.155-3.286.227-.567 1.475-1.134 1.928-.794.454.34 1.135 1.7 1.702 1.813.568 0 1.929-1.473 2.383-1.7.34-.34 1.929 1.814 1.134 2.607z"/>
            <path fill="#FFC6B2" d="M171.088 133.828c-1.702 2.04-3.97 2.72-5.105 3.06-1.135.453-1.702 1.133-1.702 2.38 0 1.359-2.61 2.832-1.929 4.192.68 1.473 6.127 2.606 8.169 1.586 2.042-1.02 3.63-4.306 6.694-6.119 2.269-1.36-4.652-6.799-6.127-5.1z"/>
            <path fill="#FFC6B2" d="M165.983 139.607c-2.156 1.133-5.673.34-7.375-1.02-.454-.34.227-2.493 1.475-1.813 1.588.793 5.219.453 6.353 0 .454-.226.568 2.38-.453 2.833zM164.28 144.026c-1.814 1.36-4.197 1.36-4.991.794-.908-.567-1.815-3.06-1.588-3.626.34-.567 1.588-.907 1.928-.567.34.34.794 1.813 1.362 1.926.567.114 2.042-1.133 2.496-1.36.34-.226 1.701 2.154.794 2.833z"/>
            <path fill="#313131" d="M105.625 43.74c1.021-.113 6.127-6.685 5.786-7.705-.34-.907-1.588-3.966-3.63-2.946-1.929 1.02-5.219 7.819-4.879 8.499.227.793 1.702 2.266 2.723 2.153zM109.937 41.7c-1.362 1.36-.908 4.534-.454 6.573-.34-.906-1.816-5.552-.227-7.139 1.361-1.36 2.95-1.246 4.651-.34-1.361-.453-2.722-.226-3.97.907zM118.786 35.582c.908-.794 2.836.68 3.857 1.586-.453-.453-3.063-3.173-4.197-2.38-1.135.794-1.135 2.493-.568 4.646-.34-1.7-.113-3.06.908-3.852zM120.715 32.069c-.568.906-4.992 1.7-5.673.906-.68-.68-2.95-3.173-1.135-4.532 1.816-1.36 4.992-.34 5.56.113.567.567 1.815 2.72 1.248 3.513z"/>
            <path fill="#000" fill-opacity=".513" d="M81.687 35.808c1.134.907 2.95 1.473 5.218 1.473 3.518-5.665 9.53-13.598 13.275-16.884l-1.135-3.286 3.177-1.473c3.857.906 9.87 3.626 15.202 12.238.908.113 1.702.453 2.043.68.113.113.227.227.34.453L93.145 63.118c-3.63-1.7-7.714-4.533-12.253-8.952-1.588 1.36-3.063 2.72-4.424 3.966l-4.425-4.533 9.644-17.79z" opacity=".6"/>
            <path fill="#93759E" d="M108.008 14.958L89.06.453l-26.094 21.19s.567 2.72 4.198 3.74l5.786 23.57 35.057-33.995z"/>
            <path fill="#775E80" d="M95.301 27.196l-22.237 21.53-5.786-23.57c-3.63-1.02-4.198-3.739-4.198-3.739l3.404-2.833c5.559 5.213 16.337 8.612 28.817 8.612z"/>
            <path fill="#93759E" d="M134.783 4.986S65.69 68.444 64.328 68.784c-1.475.34 10.438-26.63 10.438-26.63l29.271-27.65c0 .114 30.519-12.464 30.746-9.518z"/>
            <path fill="#775E80" d="M74.766 42.267l6.92-6.572c3.064 2.72 11.233 1.7 21.897-2.04C85.09 50.54 65.123 68.67 64.328 68.784c-1.475.453 10.438-26.517 10.438-26.517z"/>
            <path fill="#775E80" d="M108.348 12.918L101.087 14.731 70.909 41.361 73.064 53.146z"/>
            <path fill="#3F3144" d="M107.894 12.352L103.924 9.179 70.114 39.548 71.589 49.52z"/>
            <path fill="#1C161E" d="M84.977 26.176c1.928 1.134 4.084 2.153 6.58 2.833L71.59 49.52l-1.588-9.971 14.976-13.372z"/>
            <path fill="#313131" d="M136.371 59.378c1.362-2.493-3.176-12.351-6.353-14.278-3.177-1.926-11.005 4.306-11.005 8.273 0 3.966 2.723 12.918 4.538 13.144 1.815.114 12.026-5.779 12.82-7.139z"/>
            <path fill="#FFC6B2" d="M133.648 57.792c.795-1.587-2.155-8.159-4.084-9.405-1.929-1.247-6.353 2.832-6.24 5.439.114 2.606 1.929 8.499 2.95 8.612 1.134.113 7.034-3.74 7.374-4.646z"/>
            <path fill="#313131" d="M126.5 54.392c2.724-.113 3.745-1.473 3.631-2.04-.227-.566-5.332 2.04-3.63 2.04zM130.018 49.066c-.908-.113-5.673 2.947-5.9 3.967-.34 1.133 7.602-3.74 5.9-3.967zM121.622 47.82c4.538.227 13.274-2.72 11.8-4.42-1.475-1.7-18.72-6.572-18.72-6.572s5.9 10.992 6.92 10.992z"/>
            <path fill="#FFC6B2" d="M120.147 47.48c3.971.227 12.14-2.266 10.892-3.74-1.248-1.473-16.791-6.345-16.791-6.345s4.992 10.085 5.9 10.085z"/>
        </g>
        <path fill="#F8EFFC" d="M524.444 410.19H31.841s90.37 18.73 241.363 18.73c150.88 0 251.24-18.73 251.24-18.73z"/>
        <path fill="#93759E" d="M413 261.286c40.113-101.816 86.005-114.94 95.524-66.633l-8.159 3.394C479.515 129.943 413 261.286 413 261.286z"/>
    </g>
</svg>
