<svg xmlns="http://www.w3.org/2000/svg" xmlns:xlink="http://www.w3.org/1999/xlink" width="320" height="207" viewBox="0 0 320 207">
    <defs>
        <path id="prefix__a" d="M264.062 143.295V7.09c0-3.899-3.697-7.09-8.217-7.09H8.216C3.698 0 0 3.191 0 7.09v136.336l264.062-.13z"/>
    </defs>
    <g fill="none" fill-rule="evenodd">
        <path fill="#FFFFFE" d="M134.597 7.453c.03-.123.162-.19.279-.143l1.852.75-.212.864-1.989-.196c-.126-.013-.211-.134-.181-.257l.25-1.018M138.363 6.041c.122.03.19.162.143.28l-.75 1.853-.865-.213.197-1.99c.013-.125.134-.21.256-.18l1.019.25M139.758 9.873c-.03.124-.163.191-.28.143l-1.852-.75.213-.864 1.988.197c.126.012.212.133.181.256l-.25 1.018M135.991 11.285c-.122-.03-.19-.162-.142-.28l.749-1.852.865.213-.197 1.988c-.012.127-.133.212-.256.182l-1.019-.251" transform="translate(1)"/>
        <path fill="#1A4B75" d="M159.53 1.384c-1.393-.343-2.805.51-3.147 1.903-.343 1.393.511 2.804 1.903 3.147 1.393.343 2.804-.511 3.146-1.903.344-1.393-.51-2.804-1.902-3.147zm-1.427 5.798c-1.806-.444-2.913-2.274-2.468-4.08.444-1.804 2.273-2.91 4.078-2.466 1.806.444 2.912 2.274 2.468 4.078-.444 1.805-2.274 2.913-4.078 2.468z" transform="translate(1)"/>
        <path fill="#FFFFFE" d="M183.138 7.453c-.03-.123-.162-.19-.28-.143l-1.852.75.213.864 1.988-.196c.126-.013.212-.134.182-.257l-.25-1.018M179.372 6.041c-.123.03-.19.162-.143.28l.75 1.853.864-.213-.196-1.99c-.013-.125-.134-.21-.256-.18l-1.019.25M177.976 9.873c.032.124.164.191.28.143l1.852-.75-.212-.864-1.988.197c-.127.012-.211.133-.182.256l.25 1.018M181.743 11.285c.123-.03.19-.162.142-.28l-.748-1.852-.865.213.197 1.988c.011.127.133.212.256.182l1.018-.251" transform="translate(1)"/>
        <path fill="#1A4B75" d="M156.302 4.531c.343 1.392 1.754 2.246 3.146 1.903 1.392-.343 2.247-1.754 1.904-3.147-.342-1.393-1.755-2.246-3.147-1.903-1.392.343-2.246 1.754-1.903 3.147zm-.748.183c-.444-1.804.662-3.634 2.467-4.078 1.805-.444 3.635.662 4.08 2.467.444 1.805-.664 3.635-2.468 4.08-1.805.444-3.635-.664-4.079-2.469z" transform="translate(1)"/>
        <path fill="#E0D8E3" d="M317.502 48.276c0-4.976-4.443-9.048-9.871-9.048H10.105c-5.43 0-9.871 4.072-9.871 9.048v157.906L317.502 206V48.276z" transform="translate(1)"/>
        <g transform="translate(1) translate(27.248 62.886)">
            <mask id="prefix__b" fill="#fff">
                <use xlink:href="#prefix__a"/>
            </mask>
            <use fill="#594560" xlink:href="#prefix__a"/>
            <g mask="url(#prefix__b)">
                <g>
                    <path fill="#0AB958" d="M102 58.588c0 .83-.706 1.412-1.501 1.412-.883 0-1.499-.582-1.499-1.412V1.412C99 .582 99.616 0 100.499 0c.795 0 1.501.582 1.501 1.412v57.176M91 48.582c0 .75-.705 1.418-1.5 1.418-.792 0-1.5-.668-1.5-1.418V12.418c0-.75.708-1.418 1.5-1.418.795 0 1.5.668 1.5 1.418v36.164M69 35.505c0 .79-.619 1.495-1.501 1.495-.793 0-1.499-.704-1.499-1.495v-11.01c0-.79.706-1.495 1.499-1.495.882 0 1.501.704 1.501 1.495v11.01M45 48.582c0 .75-.635 1.418-1.452 1.418-.913 0-1.548-.668-1.548-1.418V12.418c0-.75.635-1.418 1.548-1.418.817 0 1.452.668 1.452 1.418v36.164M122 39.593c0 .746-.637 1.407-1.454 1.407-.909 0-1.546-.661-1.546-1.407V21.404c0-.827.637-1.404 1.546-1.404.817 0 1.454.577 1.454 1.404v18.19M166 58.588c0 .83-.706 1.412-1.501 1.412-.793 0-1.499-.582-1.499-1.412V1.412c0-.83.706-1.412 1.499-1.412.795 0 1.501.582 1.501 1.412v57.176M145 39.593c0 .746-.616 1.407-1.5 1.407-.794 0-1.5-.661-1.5-1.407V21.404c0-.827.706-1.404 1.5-1.404.884 0 1.5.577 1.5 1.404v18.19M3 35.505C3 36.295 2.292 37 1.5 37S0 36.296 0 35.505v-11.01C0 23.705.708 23 1.5 23s1.5.704 1.5 1.495v11.01M23 48.582c0 .75-.706 1.418-1.499 1.418C20.62 50 20 49.332 20 48.582V12.418c0-.75.619-1.418 1.501-1.418.793 0 1.499.668 1.499 1.418v36.164M201 35.505c0 .79-.637 1.495-1.546 1.495-.82 0-1.454-.704-1.454-1.495v-11.01c0-.79.634-1.495 1.454-1.495.909 0 1.546.704 1.546 1.495v11.01M176 48.582c0 .75-.706 1.418-1.5 1.418-.884 0-1.5-.668-1.5-1.418V12.418c0-.75.616-1.418 1.5-1.418.794 0 1.5.668 1.5 1.418v36.164" transform="translate(32 42)"/>
                    <path fill="#F5B137" d="M79 39.593C79 40.34 78.294 41 77.501 41 76.706 41 76 40.339 76 39.593V21.404c0-.827.706-1.404 1.501-1.404.793 0 1.499.577 1.499 1.404v18.19M35 58.588c0 .83-.706 1.412-1.499 1.412C32.62 60 32 59.418 32 58.588V1.412C32 .582 32.619 0 33.501 0 34.294 0 35 .582 35 1.412v57.176M58 39.593C58 40.34 57.381 41 56.499 41 55.706 41 55 40.339 55 39.593V21.404c0-.827.706-1.404 1.499-1.404.882 0 1.501.577 1.501 1.404v18.19M111 48.582c0 .75-.706 1.418-1.499 1.418-.882 0-1.501-.668-1.501-1.418V12.418c0-.75.619-1.418 1.501-1.418.793 0 1.499.668 1.499 1.418v36.164M133 35.505c0 .79-.616 1.495-1.499 1.495-.795 0-1.501-.704-1.501-1.495v-11.01c0-.79.706-1.495 1.501-1.495.883 0 1.499.704 1.499 1.495v11.01M155 48.582c0 .75-.706 1.418-1.501 1.418-.793 0-1.499-.668-1.499-1.418V12.418c0-.75.706-1.418 1.499-1.418.795 0 1.501.668 1.501 1.418v36.164M13 39.593C13 40.34 12.294 41 11.499 41 10.706 41 10 40.339 10 39.593V21.404c0-.827.706-1.404 1.499-1.404.795 0 1.501.577 1.501 1.404v18.19M189 39.593c0 .746-.705 1.407-1.5 1.407-.882 0-1.5-.661-1.5-1.407V21.404c0-.827.618-1.404 1.5-1.404.795 0 1.5.577 1.5 1.404v18.19" transform="translate(32 42)"/>
                </g>
            </g>
            <g mask="url(#prefix__b)">
                <g>
                    <path fill="#E0D8E3" d="M36.532 0C56.677 0 73 16.113 73 36S56.677 72 36.532 72C16.389 72 0 55.887 0 36S16.389 0 36.532 0" transform="translate(95.752 36.114)"/>
                    <path fill="#775E80" d="M29.62 61c-.593 0-1.12-.47-1.12-1 0-.59.527-1 1.12-1h5.88V47.962c-3.31-.251-6.316-1.742-8.543-4.033C24.508 41.405 23 37.916 23 34.1c0-.582.44-1.099 1.068-1.099.566 0 1.069.517 1.069 1.098 0 3.235 1.254 6.146 3.327 8.278 2.072 2.134 4.897 3.428 8.036 3.428 3.14 0 5.966-1.294 8.038-3.428 2.073-2.132 3.327-5.043 3.327-8.278 0-.58.503-1.098 1.069-1.098.564 0 1.066.517 1.066 1.098 0 3.818-1.506 7.307-3.955 9.831-2.227 2.291-5.232 3.781-8.544 4.033L37.5 59h5.947c.591 0 1.053.41 1.053 1 0 .53-.462 1-1.053 1H29.62zm6.906-51c3.854 0 6.97 3.381 6.97 7.475v16.052c0 4.092-3.116 7.473-6.97 7.473-3.85 0-7.03-3.381-7.03-7.473V17.475c0-4.012 3.053-7.34 6.8-7.471l.23-.004z" transform="translate(95.752 36.114)"/>
                </g>
            </g>
        </g>
        <path fill="#4F3A56" d="M138.302 40.463L179.433 40.463 179.433 24.267 138.302 24.267z" transform="translate(1)"/>
        <path fill="#775E80" d="M193.966 31.397h-70.197c-5.43 0-9.872-4.442-9.872-9.871v-10.42c0-5.43 4.442-9.872 9.872-9.872h70.197c5.429 0 9.871 4.442 9.871 9.871v10.42c0 5.43-4.442 9.872-9.871 9.872" transform="translate(1)"/>
        <path fill="#4A374E" d="M179.844 30.163H123.77c-4.77 0-8.638-3.867-8.638-8.637v-10.42c0-4.771 3.867-8.638 8.638-8.638h7.746c.682 0 1.234-.553 1.234-1.234 0-.681-.552-1.234-1.234-1.234h-7.746c-6.134 0-11.106 4.972-11.106 11.105v10.42c0 6.134 4.972 11.106 11.106 11.106h56.075c.682 0 1.234-.553 1.234-1.234 0-.681-.552-1.234-1.234-1.234M193.966 0h-51.757c-.681 0-1.233.553-1.233 1.234 0 .681.552 1.234 1.233 1.234h51.757c4.772 0 8.637 3.867 8.637 8.637v10.42c0 4.77-3.865 8.638-8.637 8.638h-3.427c-.682 0-1.234.553-1.234 1.234 0 .681.552 1.234 1.234 1.234h3.427c6.134 0 11.105-4.972 11.105-11.105v-10.42C205.071 4.971 200.1 0 193.966 0" transform="translate(1)"/>
        <path fill="#E0D8E3" d="M169.734 16.624c0 6-4.865 10.866-10.866 10.866-6.001 0-10.866-4.865-10.866-10.866 0-6.001 4.865-10.866 10.866-10.866 6 0 10.866 4.865 10.866 10.866" transform="translate(1)"/>
        <path fill="#4A374E" d="M167.34 21.183c-1.65 3.058-4.9 5.13-8.626 5.072-5.037-.08-9.263-4.196-9.47-9.228-.226-5.494 4.179-10.035 9.624-10.035 3.534 0 6.622 1.92 8.297 4.766.207.351.57.581.978.581h.271c.858 0 1.389-.93.964-1.676-2.116-3.725-6.145-6.225-10.747-6.136-6.284.12-11.545 5.221-11.849 11.499-.335 6.942 5.215 12.697 12.086 12.697 4.659 0 8.702-2.65 10.72-6.521.388-.744-.148-1.636-.986-1.636h-.266c-.423 0-.796.246-.995.617" transform="translate(1)"/>
        <path fill="#4A374E" d="M163.117 16.864c0 2.347-1.902 4.25-4.25 4.25-2.347 0-4.25-1.903-4.25-4.25s1.903-4.25 4.25-4.25c2.348 0 4.25 1.903 4.25 4.25" transform="translate(1)"/>
    </g>
</svg>
