<svg xmlns="http://www.w3.org/2000/svg" width="320" height="163" viewBox="0 0 320 163">
    <g fill="none">
        <path fill="#F5B137" d="M296.587 149.071c5.293-7.776 9.938-14.257 11.99-23.438 2.053-9.18 1.19-19.333-3.888-27.326-5.077-7.993-14.692-13.393-23.982-11.881-8.21 1.296-15.016 7.56-19.013 14.905-3.997 7.345-5.834 15.554-7.454 23.762-3.241-7.344-11.343-12.097-19.337-11.665-7.994.432-15.34 6.049-18.365 13.501-2.917 7.453-1.404 16.418 3.673 22.574"/>
        <g>
            <path fill="#594560" d="M140.26 149.783L84.524 149.783 69.156 108.411 124.892 108.411z" transform="translate(127.792)"/>
            <path fill="#775E80" d="M9.632 0.975H181.818V108.52H9.632z" transform="translate(127.792)"/>
            <path fill="#E6E6E6" d="M0.758 0.975H172.94400000000002V108.52H0.758z" transform="translate(127.792)"/>
            <path fill="#E0D8E3" d="M0.758 1.191H172.94400000000002V108.411H0.758z" transform="translate(127.792)"/>
            <path fill="#93759E" d="M0.758 88.592H172.94400000000002V108.52H0.758z" transform="translate(127.792)"/>
            <path fill="#FFF" d="M91.775 98.448c0 2.707-2.165 4.873-4.87 4.873-2.706 0-4.87-2.166-4.87-4.873 0-2.708 2.164-4.874 4.87-4.874 2.705.108 4.87 2.274 4.87 4.874z" transform="translate(127.792)"/>
            <path fill="#775E80" d="M131.494 149.783L75.758 149.783 60.39 108.411 116.017 108.411z" transform="translate(127.792)"/>
            <path fill="#594560" d="M125.974 135.271L39.177 135.271 33.658 149.783 131.494 149.783z" transform="translate(127.792)"/>
        </g>
        <g>
            <path fill="#F8EFFC" d="M0.539 9.239H73.885V68.257H0.539z" transform="translate(144.416 11.42)"/>
            <path fill="#B3B3B3" d="M67.09 0.217H140.436V9.238000000000001H67.09z" transform="translate(144.416 11.42)"/>
            <path fill="#775E80" d="M0.539 9.239H73.885V18.26H0.539z" transform="translate(144.416 11.42)"/>
            <path fill="#FFF" d="M67.09 0.217H140.436V59.235H67.09z" transform="translate(144.416 11.42)"/>
            <path fill="#775E80" d="M67.09 0.217H140.436V9.238000000000001H67.09z" transform="translate(144.416 11.42)"/>
            <g>
                <path fill="#2A2A2A" d="M16.503 33.041c-1.726 2.609-5.178 4.022-8.306 3.37-3.128-.653-5.608-3.37-6.148-6.522-.539-3.152.971-6.521 3.668-8.151 1.618-.979 3.667-1.413 5.393-2.283 3.451-1.739 5.716-5.543 5.609-9.456 3.02.109 6.58.761 9.6.979-.216 1.956 1.725 3.695 3.45 4.564 1.727.87 3.776.979 5.61 1.087 1.941.109 3.883.109 5.716.87 3.236 1.413 5.178 5.108 4.53 8.586-.647 3.478-3.775 6.195-7.334 6.413" transform="translate(144.416 11.42) translate(11.865 23.911)"/>
                <g>
                    <path fill="#B2614E" d="M19.415 30.867L18.229 36.085 5.177 35.324 6.687 31.411 7.766 21.955 16.719 15.977z" transform="translate(144.416 11.42) translate(11.865 23.911) translate(11.865)"/>
                    <path fill="#2A2A2A" d="M12.943 21.846c-.97 2.826-3.235 5-5.932 6.196l.647-5.87 2.697-1.847c.863.652 1.725 1.087 2.588 1.521z" transform="translate(144.416 11.42) translate(11.865 23.911) translate(11.865)"/>
                    <path fill="#B2614E" d="M2.804 22.607c5.178 5.109 10.679-.109 10.679-.109l4.422-10.216.216-.544v-.326-.544-.217-.326-.108c-.108-1.63-.647-4.24-2.157-6.413C14.56 1.956 12.404.326 8.953.217H7.658c-.108 0-.323 0-.431.11-.216 0-.324.108-.54.108C6.364.543 5.932.76 5.61.87c-1.51.869-2.697 2.282-3.56 4.021-.107.217-.215.326-.215.543 0 .11-.108.218-.108.326v.11c-.108.217-.216.434-.216.543v.217c-.108.217-.108.326-.216.543-1.941 5.544-1.402 12.608 1.51 15.434z" transform="translate(144.416 11.42) translate(11.865 23.911) translate(11.865)"/>
                    <path fill="#2A2A2A" d="M5.717 17.173c-.432 0-.755-.218-1.079-.544-.216-.326-.324-.76-.324-1.087l.54-4.13 1.078.109-.539 4.13c0 .109 0 .217.108.326 0 0 .108.109.216.109v1.087zM8.413 12.064c0 .326.108.544.324.544.216 0 .431-.218.431-.544 0-.326-.108-.543-.323-.543-.216 0-.432.217-.432.543zM2.265 11.738c0 .326.108.544.324.544.215 0 .431-.218.431-.544 0-.326-.108-.543-.323-.543-.216 0-.432.217-.432.543zM10.031 9.456c.216 0 .324.109.432.217.107.109.215.218.215.326 0 .218-.431.218-.647.218-.647 0-1.294-.109-1.834-.326-.215-.11-.431-.218-.539-.326-.108-.326.54-.435.755-.435.54 0 1.079.109 1.618.326zM3.56 8.912c.107 0 .323.11.43.11.109.108.217.217.217.325 0 .218-.324.326-.54.326-.539.109-1.078.109-1.618 0-.215 0-.431-.108-.431-.217-.108-.326.431-.435.647-.544.324-.108.755 0 1.294 0z" transform="translate(144.416 11.42) translate(11.865 23.911) translate(11.865)"/>
                    <path fill="#FFF" d="M8.737 17.173c.108.652-.324 1.304-.971 1.413-.647.108-1.294-.326-1.402-.978" transform="translate(144.416 11.42) translate(11.865 23.911) translate(11.865)"/>
                    <path fill="#B2614E" d="M15.64 11.086c.324-.652 1.079-.978 1.834-.978.755 0 1.402.326 1.941.87 1.187 1.195 1.402 3.26.54 4.673-.863 1.413-2.805 2.065-4.423 1.522" transform="translate(144.416 11.42) translate(11.865 23.911) translate(11.865)"/>
                    <path fill="#2A2A2A" d="M18.444 14.89h-1.078c0-.76-.324-1.63-.971-2.173l.324-.979 1.617-.108v1.087h-.539c.54.76.755 1.521.647 2.173zM1.726 5.76h.431c1.834.11 3.56-1.086 4.638-2.608.432-.652.755-1.304 1.079-2.065.54 1.848 1.402 3.695 2.48 5.326.971 1.413 2.158 2.826 3.668 3.586 1.294.652 2.912.761 4.207.218v-.109c-.108-1.63-.648-4.239-2.158-6.413C14.67 1.848 12.511.217 9.061.11H7.765c-.108 0-.324 0-.431.108-.216 0-.324.11-.54.11-.323.108-.755.325-1.078.434-1.51.87-2.697 2.282-3.56 4.021-.108.218-.215.326-.215.544-.108.217-.216.326-.216.434z" transform="translate(144.416 11.42) translate(11.865 23.911) translate(11.865)"/>
                </g>
                <path fill="#FFF" d="M.755 44.345s3.667-7.826 5.501-9.456c2.157-1.956 12.296-3.804 12.296-3.804s3.991 6.195 12.728 0c0 0 10.355.435 12.943 2.608 2.589 2.174 5.933 10.652 5.933 10.652" transform="translate(144.416 11.42) translate(11.865 23.911)"/>
            </g>
            <g>
                <g>
                    <path fill="#FFB78F" d="M5.285 35.867L11.541 40.758 20.602 36.628 18.229 17.064 11.218 21.086 7.55 23.259 7.335 28.694 7.119 31.846z" transform="translate(144.416 11.42) translate(77.66 13.043) translate(11.865)"/>
                    <path fill="#2A2A2A" d="M11.218 21.086L7.55 23.259l-.215 5.435c2.804-.978 5.285-3.152 6.471-5.978l-2.588-1.63z" transform="translate(144.416 11.42) translate(77.66 13.043) translate(11.865)"/>
                    <path fill="#FFB78F" d="M19.092 12.717l-.108.108-.216.435-.216.435-.216.434-3.99 9.565s-5.61 5.326-10.894.217C.432 21.086-.108 13.586 1.726 8.043c0-.109.108-.217.108-.326.215-.435.323-.978.539-1.413 0-.109.108-.217.108-.217.216-.544.54-1.087.863-1.522l.108-.109v-.108c.107-.11.107-.218.215-.327.108-.108.216-.326.324-.434.323-.326.54-.652.863-.87C6.04 1.63 7.55 1.087 9.168 1.196c3.56.108 5.825 1.739 7.227 3.586 1.726 2.391 2.157 5.326 2.265 6.956v.979h.432z" transform="translate(144.416 11.42) translate(77.66 13.043) translate(11.865)"/>
                    <path fill="#2A2A2A" d="M6.364 18.368c-.432 0-.755-.217-1.079-.543-.216-.326-.431-.76-.323-1.087l.539-4.239 1.079.109-.54 4.239c0 .108 0 .217.108.326.108.108.216.108.324.108l-.108 1.087zM9.168 13.043c0 .326.108.543.432.652.215 0 .431-.218.431-.544 0-.326-.108-.543-.431-.652-.216 0-.432.218-.432.544zM2.912 12.825c0 .326.216.544.432.652.215 0 .431-.217.431-.543 0-.326-.216-.544-.431-.652-.216 0-.432.217-.432.543zM10.786 10.217c.216.108.324.108.432.326.107.108.215.326.215.543-.108.326-.431.435-.755.435-.647.109-1.294 0-1.941-.326-.216-.109-.432-.217-.432-.435-.108-.543.54-.652.863-.652.54-.109 1.079 0 1.618.109zM4.099 9.89c.108 0 .323.11.431.218.108.109.216.217.216.435 0 .217-.324.435-.54.543-.539.218-1.186.218-1.725 0-.216 0-.432-.108-.432-.326-.215-.435.432-.652.648-.76.431-.218.97-.218 1.402-.11zM7.335 19.999c-.216 0-.432 0-.54-.109l.324-.978c.216.108.431 0 .54-.109.215-.109.323-.326.323-.543l1.078.108c-.107.544-.323.979-.755 1.305-.323.217-.647.326-.97.326zM19.092 12.717l-.108.108h-.108c-1.942-1.847-3.128-4.347-3.452-6.956-4.422.326-9.168-.109-11.325-1.304-.216-.109-.324-.217-.432-.326-.539-.544-.863-1.304-.323-2.065C5.5-1.413 14.022.217 16.826 4.674c1.726 2.39 2.158 5.325 2.266 6.956v1.087z" transform="translate(144.416 11.42) translate(77.66 13.043) translate(11.865)"/>
                    <path fill="#FFB78F" d="M16.61 12.282c.432-.652 1.187-.978 1.942-.87.755.109 1.402.544 1.942 1.087 1.078 1.304 1.186 3.37.108 4.782-1.079 1.305-3.02 1.848-4.53 1.087" transform="translate(144.416 11.42) translate(77.66 13.043) translate(11.865)"/>
                    <path fill="#2A2A2A" d="M18.876 16.52l-.971-.434c.324-.761.324-1.63 0-2.391l.647-.761 1.51.652-.431.978-.54-.217c.216.76.108 1.521-.215 2.174z" transform="translate(144.416 11.42) translate(77.66 13.043) translate(11.865)"/>
                </g>
                <path fill="#0AB958" d="M.863 46.193S3.99 34.889 7.335 33.585c3.343-1.305 11.864-1.74 11.864-1.74s4.962 4.892 12.728 0c0 0 12.296-.651 14.777 1.305 2.373 1.956 5.825 13.043 5.825 13.043" transform="translate(144.416 11.42) translate(77.66 13.043)"/>
            </g>
        </g>
        <g>
            <g>
                <path fill="#FFB78F" d="M.864 64.997l22.898 2.367.432-10.76.216-4.628c1.837 1.399 3.997 2.475 6.049 2.69 3.996.43 8.317-1.076 10.91-4.197 3.888-4.842 1.943-12.805 1.187-19.047-.864-6.887-.972-13.236-3.672-19.585 0-.107 0-.107-.108-.215-.756-1.83-1.728-3.444-2.808-4.843-1.08-1.398-2.377-2.69-3.889-3.658-2.7-1.83-6.048-2.475-9.397-2.475-7.128 0-14.581 3.12-17.93 9.577-1.62 3.013-2.16 6.457-2.16 9.9 0 1.184.108 2.368.324 3.551.648 4.52 2.485 8.932 3.997 13.236L.864 64.997z" transform="translate(19.74 2.076) translate(50.765)"/>
                <path fill="#2A2A2A" d="M20.09 47.456c.648 3.229 2.052 6.35 3.996 9.147l.216-4.627c-1.404-1.507-2.7-3.013-4.212-4.52z" transform="translate(19.74 2.076) translate(50.765)"/>
                <path fill="#775E80" d="M2.7 20.446L36.292 7.102c-1.188-1.614-2.485-2.905-4.105-3.981C29.487 1.29 26.14.646 22.79.646c-7.128 0-14.581 3.12-17.93 9.577-1.62 3.013-2.268 6.672-2.16 10.223z" transform="translate(19.74 2.076) translate(50.765)"/>
                <path fill="#FFB78F" d="M40.828 25.073c.756 2.045 1.944 3.982 3.456 5.596.432.43.757.753 1.08 1.291.325.43.54.969.433 1.615-.108.753-.648 1.398-1.297 1.829-1.62 1.184-3.888 1.399-5.832.753" transform="translate(19.74 2.076) translate(50.765)"/>
                <path fill="#2A2A2A" d="M36.616 6.564l-.54.215L2.7 20.123c0 1.184.108 2.368.324 3.551.648 4.52 2.485 8.932 3.997 13.236 2.376 1.615 4.536 2.26 7.344 1.83 2.809-.538 5.617-2.045 7.345-4.52-1.944.969-4.32 1.507-6.264.538-1.945-.968-3.349-3.228-3.24-5.38.107-2.26 1.62-4.305 3.78-4.95 2.052-.646 4.536.107 5.832 1.829 2.376-4.304 3.24-9.362 2.484-14.097" transform="translate(19.74 2.076) translate(50.765)"/>
                <path fill="#2A2A2A" d="M19.118 31.96c-.972-1.183-2.16-2.26-3.564-2.905l.54-1.184c1.08.538 2.16 1.184 3.024 2.045l.216-2.69 1.296.107-.324 4.305-1.188.322zM39.748 40.354c-.54 0-1.188-.215-1.728-.538-.756-.43-1.188-1.291-1.296-2.152l1.296-.108c0 .43.324.861.648 1.184.432.215.864.323 1.296.215l.324 1.291c0 .108-.216.108-.54.108zM37.156 27.656c0 .753.324 1.399.756 1.399s.756-.646.756-1.399-.324-1.399-.756-1.399-.756.646-.756 1.399zM35.32 24.643c-.433 0-.865 0-1.08-.323-.109-.215-.109-.538 0-.753.107-.215.323-.43.54-.538.972-.646 2.052-.969 3.132-1.076.432 0 .864 0 1.296.107.432.215.756.538.756.969 0 1.183-3.78 1.614-4.644 1.614zM23.654 12.16c2.377 1.937 6.697 2.367 10.045.969 3.349-1.4 5.617-4.52 5.185-7.318" transform="translate(19.74 2.076) translate(50.765)"/>
                <path fill="#93759E" d="M0.861 9.962L53.867 10.029 53.869 11.321 0.863 11.254z" transform="translate(19.74 2.076) translate(50.765) rotate(-21.734 27.365 10.641)"/>
            </g>
            <path fill="#93759E" d="M90.081 132.469l-1.404 14.312H.972S4.536 75.005 19.01 65.32c10.477-6.995 33.483-4.09 33.483-4.09l22.142 4.09s28.191 9.147 33.592 16.357" transform="translate(19.74 2.076)"/>
            <path fill="#775E80" d="M19.658 146.781L19.658 115.682 15.662 146.781zM48.82 50.254c-3.563-1.183-7.236-2.26-10.908-1.83-3.673.431-7.453 2.584-8.533 6.135-1.08 3.443.432 6.994 1.944 10.223 2.592 5.595 5.185 11.406 9.181 16.141 3.996 4.735 9.505 8.61 15.662 9.255 4.212.43 8.532-.753 12.42-2.475 7.562-3.551 14.366-8.501 21.063-13.344 1.728-1.184 3.564-3.336 1.08-4.842C81.55 63.92 71.935 59.294 62 55.204c-4.43-1.83-8.75-3.55-13.178-4.95z" transform="translate(19.74 2.076)"/>
        </g>
        <path fill="#2A2A2A" d="M0 148.465H320V149.50300000000001H0z"/>
        <g>
            <g>
                <path fill="#FFB78F" d="M19.66 40.23c-2.824-1.193-6.409-3.253-9.993-5.747-3.476-2.494-6.517-4.988-8.69-7.157.218-1.193.544-3.362 1.087-5.747C3.259 15.94 5.43 8.675 8.255 8.566c1.738 0 2.607 1.844 2.933 4.338C16.4 5.747 22.158-.867 24.439.867c3.15 2.495-4.345 14.097-4.345 14.097s4.02.542 5.649 4.88c0 0 4.562 1.626 4.887 3.903.218 1.952-3.04 7.049-7.277 12.145-1.086 1.518-2.39 2.928-3.693 4.338z" transform="translate(109.09 65.408) translate(62.999)"/>
                <path fill="#2A2A2A" d="M4.67 13.988c-.868 0-1.846-.325-2.498-.867l.87-.976c.868.759 2.172.759 3.04.108.652-.542 1.087-1.301 1.195-1.952.218-.867.326-1.735.326-2.602l1.304.108c-.109.976-.109 1.952-.435 2.928-.217.76-.76 1.952-1.738 2.603-.434.433-1.194.65-2.063.65z" transform="translate(109.09 65.408) translate(62.999)"/>
            </g>
            <path fill="#93759E" d="M87.764 42.398S68.32 75.905 46.706 90.328c-6.517 4.337-13.251 6.939-19.769 6.397-5.865-.542-10.427-2.82-14.12-5.856C3.15 82.845.434 69.616.434 69.616l18.248-51.073c5.54 7.265 11.514 28.735 11.514 28.735l30.305-24.073 27.263 19.193z" transform="translate(109.09 65.408)"/>
            <path fill="#775E80" d="M30.196 47.17L32.26 53.025 52.028 29.711zM46.706 90.327c-6.517 4.338-13.251 6.94-19.769 6.398-5.865-.542-10.427-2.82-14.12-5.856 3.259-4.446 17.705-21.145 33.129-1.41.326.218.543.543.76.868z" transform="translate(109.09 65.408)"/>
        </g>
    </g>
</svg>
