<svg xmlns="http://www.w3.org/2000/svg" width="173" height="344" viewBox="0 0 173 344">
    <g fill="#93759E" opacity=".5">
        <path d="M142.4.016c.22.093.227.605.042 1.465.514.873 1.215 2.342 2.388 3.987 1.944 2.727 5.346 6.255 9.882 9.142 7.879 5.013 15.757 7.124 17.482 8.433l.018.015c.127-.085.228-.111.3-.075 1.14.489-3.42 12.21-10.42 25.721-3.825 7.292-7.067 13.953-9.407 18.443-.062 3.751-1.893 7.392-5.195 9.69-5.392 3.75-12.91 2.446-16.668-3.1-3.759-5.383-2.451-12.887 3.105-16.638 5.393-3.752 12.91-2.447 16.668 3.099.373.55.694 1.117.965 1.697 1.617-4.354 3.897-9.63 6.786-15.144 2.975-5.611 5.754-10.745 8.056-14.795-3.316.137-9.774-.89-16.231-4.983-7.396-4.611-11.336-10.918-12.267-13.636-1.631 3.614-3.625 7.724-5.872 12.018-4.508 8.508-8.201 16.144-10.554 20.388-.652 2.76-2.31 5.292-4.837 7.035-5.346 3.689-12.798 2.406-16.524-3.047-3.726-5.292-2.43-12.67 3.078-16.358 5.346-3.688 12.798-2.405 16.524 3.047.638.934 1.125 1.92 1.465 2.93 1.623-4.468 4.02-10.057 7.122-15.92C135.434 10.12 141.428-.465 142.4.016zm-.864 4.486c-.71 2.023-1.765 4.634-3.095 7.636 1.773 1.057 6.539 6.813 13.787 11.217 6.298 3.952 12.507 5.77 15.142 6.918 1.674-2.892 3.038-5.077 3.96-6.274-2.929.214-10.776-.945-18.724-6.022-5.022-3.207-8.586-7.537-10.206-11.065-.395-.86-.675-1.673-.864-2.41zM49.43 104.01c.503 0 .252 6.052-4.015 11.316-2.547 3.3-5.452 5.192-7.433 6.069 1.574 1.194 3.845 3.108 6.547 5.544 1.598-.962 5.033-2.782 8.06-6.181 3.954-4.734 5.008-10.026 5.798-9.747.528 0 .528 6.127-4.216 11.418-3.052 3.403-6.539 4.963-8.64 5.421 2.564 2.34 5.46 5.096 8.485 8.117 6.37 6.362 12.166 11.548 15.257 14.464 4.925 2.742 6.784 8.966 4.146 14.002-2.67 5.097-8.935 7.049-13.994 4.358-5.058-2.69-6.995-9.003-4.325-14.1 2.071-3.955 6.306-6.016 10.463-5.485-3.562-2.656-8.298-6.584-13.1-11.38-7.065-7.056-13.144-13.1-15.637-15.997-.69.206-1.13.219-1.198.076-.062-.131.17-.392.61-.782-.482-.613-.697-.99-.595-1.094.105-.108.532.091 1.225.559 1.565-1.298 4.338-3.491 6.79-6.578 3.765-5 5.27-10.264 5.773-10zM126.25 207.14c.073.074-.01.267-.236.544 1.057 1.299 3.642 7.873 5.912 15.924 1.606 5.781 3.212 10.77 4.035 13.786 1.284 1.677 1.868 3.88 1.412 6.081-.831 4.02-4.851 6.654-8.87 5.822-4.02-.832-6.654-4.851-5.823-8.871.832-4.02 4.852-6.654 8.872-5.822.612.127 1.192.327 1.733.59-1.24-2.801-2.636-6.543-3.809-10.765-1.118-3.967-2.11-7.627-2.82-10.525-1.526 1.532-4.992 3.915-9.82 4.948-4.503 1.072-8.477.514-10.623-.195.706 2.076 1.435 4.393 2.134 6.847 1.652 5.882 3.304 10.95 4.137 13.984 1.065 1.607 1.485 3.614.998 5.622-.833 4.004-4.857 6.627-8.882 5.798-4.024-.828-6.66-4.832-5.828-8.836.832-4.004 4.857-6.627 8.881-5.799.705.14 1.367.372 1.974.679-1.238-2.8-2.615-6.482-3.778-10.62-2.038-7.152-3.662-13.314-3.973-15.869-.172-.224-.232-.38-.19-.423.034-.033.082-.053.144-.06-.027-.455.014-.72.134-.768.162-.065.453.286.838.98.608.19 1.445.468 2.492.677 2.22.414 5.274.552 8.604-.138 6.94-1.381 11.935-4.419 12.351-3.59zm-.717 1.047l-.008.009c-1.568 1.467-5.509 4.014-11.072 5.02-3.747.69-7.216.276-9.575-.69-.465-.191-.876-.398-1.236-.608.614 1.38 1.34 3.227 2.106 5.397 1.95-.106 6.024.026 10.536-1.067 4.656-.924 8.305-2.923 10.077-3.582-.483-2.06-.782-3.623-.828-4.479zM45.985 266.015c.184.092.113.673-.188 1.655.51.853 1.26 2.313 2.354 3.945 1.734 3.016 5.2 6.462 9.1 9.477 8.667 6.031 17.334 8.616 17.334 9.908 0 .02-.006.041-.018.06.604.903-4.16 12.025-11.848 24.813-5.037 9.113-9.394 17.321-11.925 21.033-.858 2.122-2.39 4.002-4.595 5.347-5.558 3.393-12.4 1.697-15.82-3.816s-1.71-12.298 3.848-15.69c5.558-3.393 12.4-1.697 15.82 3.816.591 1.09 1.016 2.229 1.273 3.381 1.809-4.489 4.487-10.232 7.904-16.252 3.411-5.675 6.576-10.776 9.138-14.697-3.332-.084-9.911-1.37-16.706-5.66-6.588-4.358-10.275-10.045-11.537-13.122-1.66 3.177-3.626 6.698-5.834 10.356-4.651 8.159-8.611 15.288-11.117 19.326-.712 2.888-2.55 5.452-5.35 6.951-5.633 3.446-12.567 1.723-16.033-3.877-3.467-5.6-1.734-12.492 3.9-15.938 5.633-3.446 12.566-1.723 16.033 3.877.638 1.03 1.1 2.12 1.394 3.23 1.792-4.383 4.4-9.922 7.706-15.723 7.8-12.923 14.3-22.83 15.167-22.4zm-1.15 4.27c-.889 2.18-2.226 5.077-3.936 8.423 2.03 1.862 6.421 7.027 12.962 11.126 6.698 4.32 12.888 6.37 15.478 7.68 2.169-3.26 3.806-5.489 4.646-6.237-2.287.323-10.752-.848-18.9-6.739-4.767-3.446-8.234-7.753-9.534-11.63-.359-.952-.585-1.838-.717-2.622z" transform="matrix(-1 0 0 1 173 0)"/>
    </g>
</svg>
