<svg xmlns="http://www.w3.org/2000/svg" width="153" height="361" viewBox="0 0 153 361">
    <g fill="#93759E" opacity=".5">
        <path d="M113.945 3.494c.229.07.288.578.195 1.454.602.813 1.453 2.202 2.791 3.715 2.219 2.508 5.97 5.662 10.784 8.058 8.36 4.163 16.415 5.439 18.268 6.56l.019.013c.117-.098.215-.134.29-.105 1.185.366-2.124 12.5-7.675 26.669-3.041 7.652-5.569 14.615-7.427 19.324.331 3.738-1.11 7.55-4.153 10.18-4.971 4.295-12.583 3.783-16.901-1.34-4.3-4.96-3.785-12.56 1.349-16.872 4.97-4.295 12.583-3.783 16.9 1.34.429.508.808 1.039 1.138 1.587 1.153-4.499 2.869-9.984 5.166-15.77 2.372-5.892 4.599-11.288 6.465-15.556-3.283.482-9.813.137-16.664-3.26-7.837-3.812-12.414-9.673-13.624-12.279-1.245 3.765-2.798 8.061-4.584 12.566-3.593 8.933-6.468 16.913-8.365 21.38-.36 2.813-1.744 5.504-4.075 7.502-4.931 4.227-12.477 3.73-16.752-1.303-4.26-4.874-3.741-12.346 1.351-16.59 4.931-4.227 12.477-3.73 16.752 1.303.733.862 1.32 1.792 1.764 2.761 1.146-4.614 2.946-10.423 5.418-16.577 5.698-13.983 10.553-25.137 11.57-24.76zm-.391 4.552c-.495 2.086-1.27 4.794-2.28 7.918 1.874.866 7.215 6.092 14.884 9.715 6.677 3.271 13.042 4.43 15.782 5.297 1.363-3.05 2.49-5.367 3.283-6.654-2.89.52-10.815.186-19.25-4.031-5.33-2.665-9.328-6.599-11.308-9.938-.482-.815-.845-1.594-1.111-2.307zM32.355 116.636c.5-.052.882 5.994-2.81 11.674-2.189 3.548-4.88 5.734-6.759 6.813 1.69 1.023 4.149 2.69 7.09 4.83 1.49-1.124 4.715-3.293 7.37-6.99 3.438-5.122 3.933-10.495 4.749-10.3.524-.055 1.164 6.038-3 11.796-2.68 3.704-5.984 5.62-8.025 6.295 2.793 2.059 5.961 4.497 9.285 7.186 7 5.66 13.307 10.212 16.686 12.79 5.184 2.212 7.684 8.207 5.586 13.492-2.122 5.348-8.149 7.943-13.46 5.796-5.313-2.146-7.898-8.223-5.776-13.571 1.647-4.149 5.643-6.641 9.832-6.548-3.82-2.27-8.94-5.68-14.218-9.948-7.763-6.28-14.44-11.655-17.223-14.275-.665.277-1.1.335-1.183.2-.076-.123.127-.407.525-.84-.544-.56-.797-.913-.707-1.027.093-.118.538.036 1.277.428 1.42-1.455 3.949-3.925 6.066-7.252 3.221-5.366 4.168-10.758 4.695-10.549zM119.533 211.173c.08.065.02.266-.178.565 1.187 1.18 4.445 7.449 7.545 15.219 2.201 5.581 4.32 10.375 5.454 13.288 1.452 1.534 2.263 3.663 2.04 5.9-.407 4.085-4.13 7.125-8.214 6.718-4.085-.407-7.124-4.13-6.717-8.214.407-4.085 4.13-7.124 8.214-6.718.622.062 1.22.201 1.785.407-1.525-2.657-3.305-6.233-4.913-10.308-1.527-3.83-2.895-7.365-3.904-10.173-1.358 1.683-4.556 4.415-9.25 5.947-4.365 1.536-8.377 1.397-10.585.917.92 1.99 1.886 4.219 2.838 6.586 2.258 5.676 4.43 10.545 5.576 13.475 1.227 1.486 1.855 3.439 1.58 5.486-.41 4.07-4.137 7.099-8.226 6.696-4.09-.403-7.13-4.11-6.72-8.179.409-4.069 4.137-7.099 8.226-6.695.716.065 1.398.226 2.034.468-1.524-2.654-3.279-6.172-4.867-10.166-2.775-6.9-5.034-12.858-5.61-15.367-.195-.205-.271-.355-.234-.4.03-.038.076-.062.137-.076-.075-.45-.061-.718.053-.778.154-.08.48.237.936.886.625.127 1.486.316 2.55.414 2.25.18 5.302-.002 8.542-1.037 6.756-2.098 11.407-5.641 11.908-4.861zm-.603 1.115l-.008.01c-1.405 1.623-5.058 4.568-10.485 6.15-3.655 1.078-7.148 1.029-9.596.314-.482-.14-.913-.303-1.292-.475.755 1.309 1.67 3.07 2.658 5.147 1.928-.309 5.995-.603 10.367-2.162 4.534-1.406 7.954-3.776 9.648-4.616-.696-1.998-1.157-3.52-1.292-4.368zM45.862 278.115c.193.072.183.657-.014 1.665.598.795 1.495 2.169 2.754 3.678 2.04 2.817 5.847 5.882 10.041 8.474 9.25 5.091 18.139 6.756 18.274 8.041.002.021-.001.042-.011.062.695.835-2.882 12.394-9.19 25.915-4.056 9.59-7.531 18.208-9.661 22.165-.632 2.2-1.959 4.23-4.011 5.798-5.173 3.955-12.154 2.983-16.132-2.142-3.978-5.125-2.986-12.052 2.187-16.007 5.173-3.955 12.154-2.983 16.132 2.142.702 1.022 1.243 2.11 1.62 3.23 1.33-4.653 3.392-10.645 6.162-16.99 2.799-6 5.413-11.404 7.55-15.571-3.322.265-9.999-.326-17.205-3.883-7.008-3.646-11.269-8.916-12.845-11.844-1.32 3.333-2.906 7.04-4.72 10.91-3.773 8.6-6.966 16.103-9.036 20.382-.407 2.946-1.965 5.688-4.594 7.471-5.242 4.017-12.318 3.028-16.35-2.18-4.034-5.206-3.03-12.242 2.212-16.258 5.242-4.016 12.318-3.027 16.35 2.18.743.958 1.317 1.994 1.725 3.067 1.323-4.546 3.338-10.328 6.02-16.442 6.406-13.668 11.835-24.2 12.742-23.863zm-.698 4.367c-.655 2.26-1.682 5.281-3.033 8.788 2.214 1.639 7.12 6.317 14.054 9.71 7.113 3.597 13.484 4.987 16.196 6.02 1.816-3.47 3.211-5.857 3.969-6.689-2.242.56-10.782.281-19.502-4.726-5.1-2.929-8.998-6.85-10.696-10.57-.457-.91-.775-1.767-.988-2.533z"/>
    </g>
</svg>
