<svg xmlns="http://www.w3.org/2000/svg" width="149" height="384" viewBox="0 0 149 384">
    <g fill="#93759E" opacity=".5">
        <path d="M62.894 11.108c.24.009.428.484.565 1.353.792.63 1.973 1.752 3.658 2.867 2.792 1.849 7.232 3.923 12.501 4.993 9.152 1.857 17.264 1.004 19.343 1.608l.022.007c.088-.124.173-.185.254-.177 1.24.048 1.183 12.624-.511 27.747-.958 8.179-1.597 15.558-2.173 20.589 1.287 3.524.882 7.58-1.377 10.907-3.69 5.435-11.175 6.91-16.672 3.08-5.438-3.678-6.907-11.152-3.064-16.646 3.69-5.435 11.176-6.91 16.672-3.08.545.38 1.049.795 1.51 1.24-.052-4.645.186-10.388.907-16.571.767-6.305 1.521-12.093 2.22-16.7-3.047 1.317-9.444 2.673-16.94 1.165-8.557-1.654-14.495-6.13-16.338-8.334-.228 3.958-.617 8.51-1.176 13.324-1.159 9.558-1.87 18.01-2.546 22.816.38 2.81-.26 5.768-1.995 8.301-3.669 5.36-11.086 6.833-16.519 3.077-5.375-3.605-6.809-10.957-2.988-16.374 3.67-5.36 11.086-6.832 16.519-3.077.93.643 1.737 1.389 2.417 2.21-.086-4.753.148-10.83.944-17.415 1.884-14.98 3.687-27.01 4.767-26.91zm.8 4.498c.063 2.143.014 4.96-.151 8.238 2.033.352 8.545 4.017 16.89 5.532 7.296 1.431 13.744.904 16.615 1.032.527-3.3 1.017-5.829 1.449-7.277-2.657 1.25-10.398 2.98-19.638 1.088-5.838-1.194-10.717-3.96-13.494-6.673-.677-.661-1.23-1.32-1.67-1.94zM13.368 141.512c.468-.18 2.403 5.56.306 12.003-1.195 3.994-3.23 6.802-4.764 8.33 1.897.551 4.703 1.525 8.099 2.83 1.147-1.47 3.701-4.4 5.31-8.659 1.994-5.837 1.081-11.154 1.92-11.178.492-.189 2.687 5.531.155 12.172-1.63 4.27-4.326 6.976-6.123 8.156 3.232 1.266 6.923 2.801 10.83 4.538 8.226 3.656 15.496 6.42 19.427 8.035 5.58.796 9.546 5.94 8.888 11.587-.666 5.715-5.816 9.782-11.502 9.083-5.687-.699-9.757-5.899-9.091-11.614.517-4.434 3.731-7.875 7.802-8.87-4.277-1.203-10.106-3.172-16.308-5.929-9.124-4.056-16.965-7.52-20.331-9.33-.57.44-.976.608-1.091.499-.105-.1.018-.426.29-.948-.67-.4-1.006-.675-.949-.809.06-.138.53-.105 1.345.083.995-1.772 2.798-4.813 3.982-8.574 1.722-6.018 1.242-11.47 1.805-11.405zM122.043 210.264c.095.042.087.252-.025.592 1.452.833 6.221 6.045 11.226 12.747 3.57 4.822 6.858 8.904 8.707 11.424 1.8 1.106 3.134 2.953 3.498 5.172.664 4.05-2.145 7.95-6.195 8.614-4.051.664-7.95-2.145-8.615-6.196-.664-4.05 2.145-7.95 6.196-8.614.617-.101 1.23-.122 1.83-.07-2.161-2.171-4.806-5.165-7.414-8.685-2.466-3.303-4.703-6.365-6.404-8.816-.876 1.977-3.258 5.444-7.395 8.139-3.82 2.614-7.73 3.518-9.988 3.625 1.404 1.685 2.915 3.587 4.447 5.627 3.65 4.899 7.008 9.04 8.873 11.573 1.57 1.118 2.682 2.842 2.946 4.89.658 4.037-2.16 7.928-6.213 8.597-4.054.669-7.95-2.124-8.608-6.16-.658-4.037 2.16-7.928 6.213-8.597.709-.122 1.409-.143 2.086-.074-2.159-2.17-4.765-5.114-7.332-8.56-4.467-5.947-8.19-11.117-9.397-13.391-.24-.148-.353-.273-.329-.327.02-.044.058-.079.113-.108-.189-.415-.245-.678-.15-.765.128-.119.525.104 1.133.614.636-.04 1.517-.08 2.57-.261 2.221-.409 5.12-1.374 7.983-3.212 5.983-3.776 9.558-8.402 10.244-7.778zm-.294 1.234l-.005.01c-.937 1.932-3.704 5.722-8.536 8.655-3.251 1.987-6.638 2.844-9.187 2.787-.503-.011-.96-.057-1.371-.124 1.067 1.068 2.406 2.532 3.9 4.283 1.782-.797 5.633-2.134 9.453-4.772 4.016-2.53 6.706-5.705 8.124-6.955-1.189-1.75-2.028-3.101-2.378-3.884zM68.208 293.992c.206.02.347.587.418 1.612.783.614 2.005 1.709 3.612 2.84 2.699 2.194 7.17 4.169 11.892 5.586 10.252 2.525 19.27 1.832 19.732 3.038.008.02.01.04.006.063.887.627.424 12.717-2.17 27.41-1.436 10.314-2.562 19.538-3.595 23.91-.04 2.289-.797 4.593-2.374 6.64-3.973 5.158-10.967 6.026-16.136 2.105-5.17-3.92-6.004-10.868-2.03-16.027 3.973-5.159 10.967-6.027 16.136-2.106.942.805 1.747 1.716 2.4 2.7.08-4.839.522-11.16 1.555-18.005 1.151-6.52 2.278-12.417 3.264-16.996-3.14 1.116-9.743 2.274-17.625.703-7.712-1.708-13.192-5.695-15.473-8.116-.412 3.562-.985 7.552-1.735 11.76-1.418 9.283-2.56 17.357-3.453 22.026.37 2.95-.426 6.003-2.503 8.406-4.025 5.236-11.115 6.112-16.358 2.127-5.243-3.986-6.095-11.042-2.071-16.278 4.024-5.236 11.114-6.112 16.358-2.126.965.734 1.787 1.585 2.459 2.516.102-4.734.551-10.84 1.56-17.44 2.65-14.86 5.168-26.44 6.131-26.348zm.457 4.4c-.048 2.352-.259 5.536-.656 9.273 2.562 1.01 8.513 4.259 16.088 5.742 7.802 1.633 14.315 1.327 17.203 1.623.856-3.822 1.585-6.489 2.102-7.488-2.02 1.121-10.342 3.062-20.06.482-5.685-1.509-10.465-4.288-13.068-7.442-.677-.76-1.206-1.506-1.61-2.19z"/>
    </g>
</svg>
