<svg xmlns="http://www.w3.org/2000/svg" xmlns:xlink="http://www.w3.org/1999/xlink" width="114" height="48" viewBox="0 0 114 48">
    <defs>
        <path id="prefix__a" d="M0.028 0.138L48.133 0.138 48.133 47.972 0.028 47.972z"/>
    </defs>
    <g fill="none" fill-rule="evenodd">
        <mask id="prefix__b" fill="#fff">
            <use xlink:href="#prefix__a"/>
        </mask>
        <path fill="#93759E" d="M34.646 19.626c-.19-.072-.378-.116-.698-.116-.596 0-.887.304-.974.795l-.116.709h1.541l-.276 1.763h-1.541l-.93 5.796h-2.603l.916-5.796h-2.209l-.916 5.796h-2.587l.915-5.796h-.959l.276-1.763h.96l.13-.81c.277-1.778 1.57-2.515 3.14-2.515.64 0 1.003.072 1.323.202l-.29 1.88c-.204-.073-.379-.102-.67-.102-.58 0-.857.26-.944.795l-.088.55h2.196l.16-.954c.29-1.793 1.598-2.53 3.197-2.53.684 0 1.018.087 1.352.202l-.305 1.894zm-12.182.65c-.814 0-1.395-.549-1.395-1.315 0-.752.596-1.33 1.41-1.33.8 0 1.395.564 1.395 1.315 0 .766-.61 1.33-1.41 1.33zm-.189 8.297h-2.602l1.207-7.56h2.587l-1.192 7.56zm-5.48-3.339l-.538 3.34h-2.602l.8-5.089c.174-1.084.247-1.792.26-2.471h2.545c0 .375-.03.997-.102 1.604.61-1.185 1.44-1.72 2.762-1.706l-.378 2.414c-1.599-.057-2.514.42-2.747 1.908zM24.067.138C10.775.138 0 10.852 0 24.068 0 37.287 10.775 48 24.067 48c13.29 0 24.066-10.714 24.066-23.931S37.358.138 24.067.138z" mask="url(#prefix__b)"/>
        <g fill="#93759E" stroke="#93759E" stroke-linecap="round" stroke-linejoin="round" stroke-width=".5">
            <path d="M5.195 8.813V7.515h-1.57c-1.6 0-2.847.335-2.847 1.707 0 .978.616 1.547 1.878 1.547 1.409 0 2.539-.817 2.539-1.956zM0 9.223c0-1.767 1.702-2.306 3.595-2.306h1.6V6.23c0-1.43-.587-2.043-1.938-2.043-1.159 0-1.98.496-2.157 1.62H.337C.513 4.202 1.834 3.53 3.287 3.53c1.6 0 2.685.76 2.685 2.7v5.049h-.777v-1.168c-.485.744-1.306 1.284-2.598 1.284-1.51 0-2.597-.73-2.597-2.174h0zM8.226 3.648h.778v1.488c.352-.832 1.35-1.605 2.715-1.605 1.628 0 2.729.876 2.729 3.05v4.699h-.778V6.537c0-1.62-.763-2.335-2.128-2.335-1.276 0-2.538.847-2.538 2.452v4.626h-.778V3.648M21.896 8.813V7.515h-1.57c-1.6 0-2.846.335-2.846 1.707 0 .978.615 1.547 1.878 1.547 1.408 0 2.538-.817 2.538-1.956zm-5.194.41c0-1.767 1.702-2.306 3.595-2.306h1.6V6.23c0-1.43-.588-2.043-1.937-2.043-1.16 0-1.982.496-2.158 1.62h-.763c.176-1.606 1.497-2.277 2.95-2.277 1.6 0 2.685.76 2.685 2.7v5.049h-.778v-1.168c-.484.744-1.306 1.284-2.597 1.284-1.512 0-2.597-.73-2.597-2.174h0zM24.928 11.279L25.721 11.279 25.721 0 24.928 0zM31.012 10.623L27.975 3.648 28.812 3.648 31.438 9.732 33.889 3.648 34.681 3.648 30.425 13.935 29.618 13.935 31.012 10.623M38.065 9.44V4.304h-1.13v-.656h1.13V1.912h.777v1.736h2.011v.656h-2.01v5.078c0 .92.44 1.343 1.144 1.343.396 0 .705-.073.968-.16v.656c-.249.087-.543.16-1.012.16-1.218 0-1.878-.715-1.878-1.94M43.386 11.28h.777V3.647h-.777v7.631zm-.176-9.82c0-.292.249-.54.557-.54.308 0 .543.248.543.54 0 .306-.235.554-.543.554-.308 0-.557-.248-.557-.555h0zM46.564 7.544v-.117c0-2.334 1.644-3.896 3.669-3.896 1.555 0 2.993.818 3.198 2.54h-.763c-.19-1.285-1.232-1.883-2.435-1.883-1.6 0-2.862 1.226-2.862 3.24v.116c0 2.013 1.247 3.195 2.862 3.195 1.276 0 2.362-.73 2.552-2.1h.72c-.206 1.633-1.526 2.757-3.272 2.757-2.07 0-3.669-1.532-3.669-3.852M55.759 9.003h.749c.132 1.036.777 1.75 2.2 1.75 1.292 0 1.952-.583 1.952-1.502 0-.978-.572-1.283-2.01-1.547-1.878-.335-2.642-.817-2.642-2.13 0-1.299 1.233-2.043 2.524-2.043 1.38 0 2.465.57 2.671 2.072h-.748c-.19-.978-.822-1.415-1.937-1.415-1.071 0-1.79.54-1.79 1.356 0 .876.528 1.198 2.098 1.474 1.643.293 2.583.686 2.583 2.175 0 1.284-.954 2.218-2.7 2.218-1.805 0-2.847-.949-2.95-2.408" transform="translate(52.17 17.294)"/>
        </g>
    </g>
</svg>
