<svg xmlns="http://www.w3.org/2000/svg" xmlns:xlink="http://www.w3.org/1999/xlink" width="320" height="163" viewBox="0 0 320 163">
    <defs>
        <path id="prefix__a" d="M.366 152.833H305.43V.056H.366v152.777zm240.332-96.021c-.208-11.985-3.555-13.02-6.941-13.02-.353 0-.706.012-1.057.023-.35.011-.698.022-1.04.022-1.011 0-1.964-.098-2.767-.59-2.689-1.646-3.227-6.254-3.367-9.401-.595-13.519-5.502-19.23-10.556-19.23-1.722 0-3.46.662-5.052 1.905-8.98 7.007-1.097 35.291-15.018 35.291-11.188 0-7.153-25.976-22.885-26.174l-.198-.001c-18.131 0-19.221 31.175-19.221 31.175h88.102zM70.575 22.856c-8.413 0-15.255 6.835-15.255 15.234 0 8.4 6.842 15.233 15.255 15.233 8.412 0 15.254-6.833 15.254-15.233 0-8.399-6.842-15.234-15.254-15.234zm0 27.942c-7.018 0-12.727-5.7-12.727-12.708 0-7.007 5.71-12.707 12.727-12.707S83.3 31.083 83.3 38.09c0 7.009-5.708 12.708-12.725 12.708z"/>
        <path id="prefix__c" d="M270.039 18.25c-16.554 30.002-13.881 70.193-37.503 70.193-12.35 0-33.784-70.553-52.605-44.878-35.92 49.01-49.415-.595-69.649 14.96-20.457 15.728-27.033 42.759-45.541 42.759-11.173 0-17.947-16.26-29.71-11.306-14.434 6.077-14.856 20.713-34.93 28.964.814-.387 302.096 0 302.096 0V2.073c-6.405-4.732-23.27.068-32.158 16.177"/>
        <path id="prefix__e" d="M43.739 10.34c-5.202 9.23-6.15 26.17-13.772 26.17-6.35 0-4.43-35.735-15.62-35.735C-1.35.775.157 40.945.157 40.945h60.05s-1.086-13.036-1.649-17.351C55.782 2.329 47.316 3.993 43.74 10.339"/>
        <path id="prefix__g" d="M66.32.097c-10.17 0-14.68 25.995-25.884 25.995-9.314 0-10.425-22.954-22.902-22.954C4.14 3.138.158 32.875.158 32.875h80.554S77.76.097 66.32.097"/>
        <path id="prefix__i" d="M88.779 42.287H.676s1.09-31.175 19.221-31.175l.2.001c15.73.198 11.695 26.174 22.884 26.174 13.92 0 6.037-28.283 15.018-35.29C59.591.753 61.33.091 63.051.091c5.054 0 9.96 5.71 10.556 19.23.14 3.146.678 7.754 3.367 9.4.803.492 1.756.59 2.767.59.341 0 .689-.01 1.04-.022.35-.01.703-.022 1.057-.022 3.385 0 6.733 1.035 6.941 13.02"/>
        <path id="prefix__k" d="M80.834 29.282c-1.363.102-2.65.2-3.621-.394-1.901-1.166-2.933-4.118-3.15-9.034-.438-9.934-3.354-16.859-8-18.997-2.652-1.219-5.694-.734-8.345 1.335-4.063 3.17-4.795 10.44-5.504 17.475-.918 9.11-1.785 17.717-9.233 17.717-4.802 0-6.619-5.13-8.724-11.072-2.49-7.026-5.312-14.99-14.156-15.1h-.203c-7.609 0-13.42 5.367-16.816 15.537C.526 34.406.223 42.194.221 42.273l.91.032c.012-.303 1.278-30.182 18.766-30.182l.193.002c8.207.1 10.799 7.417 13.306 14.492 2.127 6.006 4.138 11.68 9.585 11.68 8.275 0 9.223-9.426 10.14-18.542.69-6.84 1.403-13.915 5.16-16.847 2.405-1.877 5.033-2.31 7.399-1.222 4.326 1.99 7.049 8.625 7.472 18.209.23 5.24 1.403 8.436 3.584 9.771 1.223.749 2.72.636 4.167.525 1.747-.13 3.4-.258 4.713.938 1.718 1.564 2.604 5.216 2.708 11.168l.912-.016c-.11-6.3-1.064-10.06-3.007-11.827-1.604-1.459-3.617-1.305-5.395-1.172"/>
        <path id="prefix__m" d="M7.234.51L.712 2.76C3.217 11.56 11.318 18.006 20.93 18.006v-6.882C14.334 11.124 8.794 6.613 7.234.51"/>
        <path id="prefix__o" d="M1.547 2.615c.768 1.74 1.198 3.665 1.198 5.69 0 2.873-.862 5.544-2.34 7.777l5.482 4.182c2.36-3.395 3.748-7.513 3.748-11.96 0-2.811-.559-5.493-1.561-7.942L1.547 2.615"/>
        <path id="prefix__q" d="M.796 7.71l5.484 4.182c2.59-2.936 6.382-4.793 10.61-4.793h.001V.22C10.43.22 4.652 3.131.796 7.71"/>
        <path id="prefix__s" d="M11.371 22.02C5.565 22.02.842 17.304.842 11.506.842 5.708 5.565.993 11.372.993 17.176.993 21.9 5.708 21.9 11.506S17.177 22.02 11.37 22.02zm0-21.398C5.361.622.473 5.506.473 11.506c0 6.001 4.888 10.882 10.898 10.882s10.9-4.88 10.9-10.882c0-6-4.89-10.884-10.9-10.884z"/>
        <path id="prefix__u" d="M11.371.523C7.121.523 3.13 2.18.134 5.189l1.047 1.042C3.9 3.505 7.518 2 11.371 2 19.293 2 25.74 8.435 25.74 16.348c0 7.91-6.447 14.35-14.369 14.35v1.474c8.738 0 15.848-7.098 15.848-15.824 0-8.726-7.11-15.825-15.848-15.825"/>
        <path id="prefix__w" d="M13.235.465L12.29 1.6c4.412 3.656 6.941 9.029 6.941 14.748 0 10.557-8.602 19.146-19.174 19.146v1.479c11.388 0 20.653-9.253 20.653-20.625 0-6.16-2.724-11.95-7.476-15.883"/>
        <path id="prefix__y" d="M9.884.353C2.053-1.04.35 4.387.511 8.503c.164 4.223 4.494 7.833 6.245 8.387.233.073 3.486.217 5.284-3.727.362-.792.575-1.577.174-1.801-1.424-.798-1.97-3.12-1.376-3.708.918-.906 1.348.623 1.95.164.535-.406 1.257-3.27.456-4.803-.594-1.14-1.899-2.4-3.36-2.662"/>
        <path id="prefix__z" d="M5.043.169C2.66.169.724 2.099.724 4.48c0 2.385 1.935 4.315 4.32 4.315 2.386 0 3.226-1.93 3.226-4.315C8.27 2.1 7.43.169 5.043.169"/>
        <path id="prefix__A" d="M5.59.784c-4.23 1.169-3.251 6.664-3.251 18.36 0 .921-1.878 20.96-2.166 22.659 1.402.977 4.921 1.514 8.773 1.712 0-4.62-3.266-6.312-3.266-10.367 0-2.504 3.021-5.153 2.832-7.138-.355-3.74-1.255-13.155.434-18.742C9.482 5.494 6.9.42 5.59.784"/>
    </defs>
    <g fill="none" fill-rule="evenodd">
        <path fill="#EAF1F2" d="M297.804 120.527s-3.547-3.977-10.68-.951c-7.131 3.026-7.801 12.251-3.39 19.035 0 0 8.68-2.091 13.722-8.411 6.824-8.553 14.275-3.205 14.275-3.205s-5.71-9.877-13.927-6.468"/>
        <path fill="#B7D2E4" d="M287.125 119.576c-7.132 3.026-7.802 12.251-3.392 19.035 5.79-18.447 14.071-18.084 14.071-18.084s-3.547-3.977-10.68-.951"/>
        <g transform="translate(6.9 7.496)">
            <mask id="prefix__b" fill="#fff">
                <use xlink:href="#prefix__a"/>
            </mask>
            <path fill="#E0D8E3" d="M.366 152.833H305.43V.056H.366v152.777zm240.332-96.021c-.208-11.985-3.555-13.02-6.941-13.02-.353 0-.706.012-1.057.023-.35.011-.698.022-1.04.022-1.011 0-1.964-.098-2.767-.59-2.689-1.646-3.227-6.254-3.367-9.401-.595-13.519-5.502-19.23-10.556-19.23-1.722 0-3.46.662-5.052 1.905-8.98 7.007-1.097 35.291-15.018 35.291-11.188 0-7.153-25.976-22.885-26.174l-.198-.001c-18.131 0-19.221 31.175-19.221 31.175h88.102zM70.575 22.856c-8.413 0-15.255 6.835-15.255 15.234 0 8.4 6.842 15.233 15.255 15.233 8.412 0 15.254-6.833 15.254-15.233 0-8.399-6.842-15.234-15.254-15.234zm0 27.942c-7.018 0-12.727-5.7-12.727-12.708 0-7.007 5.71-12.707 12.727-12.707S83.3 31.083 83.3 38.09c0 7.009-5.708 12.708-12.725 12.708z" mask="url(#prefix__b)"/>
        </g>
        <path fill="#7D5C82" d="M0 7.552L319.595 7.552 319.595 0 0 0z"/>
        <g transform="translate(10.133 41.387)">
            <mask id="prefix__d" fill="#fff">
                <use xlink:href="#prefix__c"/>
            </mask>
            <path fill="#93759E" fill-opacity=".225" d="M270.039 18.25c-16.554 30.002-13.881 70.193-37.503 70.193-12.35 0-33.784-70.553-52.605-44.878-35.92 49.01-49.415-.595-69.649 14.96-20.457 15.728-27.033 42.759-45.541 42.759-11.173 0-17.947-16.26-29.71-11.306-14.434 6.077-14.856 20.713-34.93 28.964.814-.387 302.096 0 302.096 0V2.073c-6.405-4.732-23.27.068-32.158 16.177" mask="url(#prefix__d)"/>
        </g>
        <path fill="#93759E" d="M100.709 138.641L105.451 138.641 105.451 113.42 100.709 113.42z"/>
        <path fill="#775E80" fill-opacity=".414" d="M109.416 138.641L114.158 138.641 114.158 122.761 109.416 122.761z"/>
        <path fill="#93759E" d="M118.124 138.641L122.864 138.641 122.864 115.719 118.124 115.719z"/>
        <path fill="#523F59" d="M126.83 138.641L131.571 138.641 131.571 119.239 126.83 119.239z"/>
        <path fill="#775E80" d="M135.536 138.641L140.276 138.641 140.276 108.463 135.536 108.463z"/>
        <g transform="translate(162.052 98.68)">
            <mask id="prefix__f" fill="#fff">
                <use xlink:href="#prefix__e"/>
            </mask>
            <path fill="#775E80" d="M43.739 10.34c-5.202 9.23-6.15 26.17-13.772 26.17-6.35 0-4.43-35.735-15.62-35.735C-1.35.775.157 40.945.157 40.945h60.05s-1.086-13.036-1.649-17.351C55.782 2.329 47.316 3.993 43.74 10.339" mask="url(#prefix__f)"/>
        </g>
        <g transform="translate(162.052 106.749)">
            <mask id="prefix__h" fill="#fff">
                <use xlink:href="#prefix__g"/>
            </mask>
            <path fill="#93759E" d="M66.32.097c-10.17 0-14.68 25.995-25.884 25.995-9.314 0-10.425-22.954-22.902-22.954C4.14 3.138.158 32.875.158 32.875h80.554S77.76.097 66.32.097" mask="url(#prefix__h)"/>
        </g>
        <path fill="#E0D8E3" d="M220.78 111.963c-11.712 0-7.089 22.705-18.293 22.705-9.314 0-8.076-14.867-20.139-14.867-13.394 0-20.139 19.823-20.139 19.823h80.555s-11.343-27.66-21.984-27.66"/>
        <g transform="translate(158.82 22.021)">
            <mask id="prefix__j" fill="#fff">
                <use xlink:href="#prefix__i"/>
            </mask>
            <path fill="#93759E" d="M88.779 42.287H.676s1.09-31.175 19.221-31.175l.2.001c15.73.198 11.695 26.174 22.884 26.174 13.92 0 6.037-28.283 15.018-35.29C59.591.753 61.33.091 63.051.091c5.054 0 9.96 5.71 10.556 19.23.14 3.146.678 7.754 3.367 9.4.803.492 1.756.59 2.767.59.341 0 .689-.01 1.04-.022.35-.01.703-.022 1.057-.022 3.385 0 6.733 1.035 6.941 13.02" mask="url(#prefix__j)"/>
        </g>
        <g transform="translate(158.82 22.021)">
            <mask id="prefix__l" fill="#fff">
                <use xlink:href="#prefix__k"/>
            </mask>
            <path fill="#775E80" d="M80.834 29.282c-1.363.102-2.65.2-3.621-.394-1.901-1.166-2.933-4.118-3.15-9.034-.438-9.934-3.354-16.859-8-18.997-2.652-1.219-5.694-.734-8.345 1.335-4.063 3.17-4.795 10.44-5.504 17.475-.918 9.11-1.785 17.717-9.233 17.717-4.802 0-6.619-5.13-8.724-11.072-2.49-7.026-5.312-14.99-14.156-15.1h-.203c-7.609 0-13.42 5.367-16.816 15.537C.526 34.406.223 42.194.221 42.273l.91.032c.012-.303 1.278-30.182 18.766-30.182l.193.002c8.207.1 10.799 7.417 13.306 14.492 2.127 6.006 4.138 11.68 9.585 11.68 8.275 0 9.223-9.426 10.14-18.542.69-6.84 1.403-13.915 5.16-16.847 2.405-1.877 5.033-2.31 7.399-1.222 4.326 1.99 7.049 8.625 7.472 18.209.23 5.24 1.403 8.436 3.584 9.771 1.223.749 2.72.636 4.167.525 1.747-.13 3.4-.258 4.713.938 1.718 1.564 2.604 5.216 2.708 11.168l.912-.016c-.11-6.3-1.064-10.06-3.007-11.827-1.604-1.459-3.617-1.305-5.395-1.172" mask="url(#prefix__l)"/>
        </g>
        <path fill="#57445E" d="M221.561 20.775c-1.048 0-1.897.848-1.897 1.892 0 1.045.85 1.894 1.897 1.894 1.047 0 1.895-.85 1.895-1.894s-.848-1.892-1.895-1.892"/>
        <path fill="#FFF" fill-opacity=".384" d="M221.674 63.169v1.14h-.228v-1.14h.228zm0-3.258v2.327h-.228V59.91h.228zm0-3.258v2.327h-.228v-2.327h.228zm0-3.26v2.326h-.228v-2.326h.228zm0-3.258v2.327h-.228v-2.327h.228zm0-3.26v2.328h-.228v-2.328h.228zm0-3.26v2.33h-.228v-2.33h.228zm0-3.259v2.328h-.228v-2.328h.228zm0-3.258v2.326h-.228v-2.326h.228zm0-3.259v2.327h-.228v-2.327h.228zm0-3.26v2.327h-.228v-2.327h.228zm0-3.26v2.33h-.228v-2.33h.228zm0-2.07v1.14h-.228v-1.14h.228z"/>
        <path fill="#57445E" d="M178.062 31.869c-1.048 0-1.896.847-1.896 1.892 0 1.044.848 1.894 1.896 1.894 1.046 0 1.895-.85 1.895-1.894 0-1.045-.85-1.892-1.895-1.892"/>
        <path fill="#FFF" fill-opacity=".376" d="M178.175 63.169v1.14h-.228v-1.14h.228zm0-3.099v2.214h-.228V60.07h.228zm0-3.1v2.214h-.228v-2.213h.228zm0-3.1v2.213h-.228V53.87h.228zm0-3.102v2.215h-.228v-2.215h.228zm0-3.1v2.216h-.228V47.67h.228zm0-3.099v2.214h-.228V44.57h.228zm0-3.1v2.213h-.228v-2.213h.228zm0-3.1v2.214h-.228v-2.214h.228zm0-2.026v1.14h-.228v-1.14h.228z"/>
        <path fill="#FFFFFE" d="M159.024 64.368L247.598 64.368 247.598 64.253 159.024 64.253z"/>
        <path fill="#93759E" fill-opacity=".438" d="M280.76 62.483c-7.061 0-12.808-5.737-12.808-12.79 0-7.054 5.747-12.791 12.808-12.791 7.064 0 12.81 5.737 12.81 12.79 0 7.054-5.746 12.791-12.81 12.791zm0-25.95c-7.264 0-13.176 5.903-13.176 13.16 0 7.255 5.912 13.159 13.176 13.159 7.268 0 13.179-5.904 13.179-13.16s-5.91-13.159-13.179-13.159z"/>
        <path fill="#93759E" fill-opacity=".689" d="M281.685 65.66v6.878c7.16 0 13.48-3.577 17.277-9.037l-5.48-4.182c-2.53 3.82-6.869 6.342-11.797 6.342"/>
        <g transform="translate(259.83 52.685)">
            <mask id="prefix__n" fill="#fff">
                <use xlink:href="#prefix__m"/>
            </mask>
            <path fill="#775E80" d="M7.234.51L.712 2.76C3.217 11.56 11.318 18.006 20.93 18.006v-6.882C14.334 11.124 8.794 6.613 7.234.51" mask="url(#prefix__n)"/>
        </g>
        <path fill="#93759E" fill-opacity=".689" d="M264.666 36.186c-3.075 3.651-4.93 8.361-4.93 13.506 0 1.995.284 3.925.805 5.754l6.522-2.252c-.286-1.12-.438-2.293-.438-3.502 0-3.576 1.332-6.836 3.525-9.324l-5.484-4.182"/>
        <g transform="translate(292.153 41.387)">
            <mask id="prefix__p" fill="#fff">
                <use xlink:href="#prefix__o"/>
            </mask>
            <path fill="#775E80" d="M1.547 2.615c.768 1.74 1.198 3.665 1.198 5.69 0 2.873-.862 5.544-2.34 7.777l5.482 4.182c2.36-3.395 3.748-7.513 3.748-11.96 0-2.811-.559-5.493-1.561-7.942L1.547 2.615" mask="url(#prefix__p)"/>
        </g>
        <path fill="#F8EFFC" d="M281.164 28.12v6.879c5.778 0 10.745 3.465 12.937 8.425l6.527-2.252c-3.137-7.656-10.668-13.052-19.464-13.052"/>
        <g transform="translate(263.87 28.477)">
            <mask id="prefix__r" fill="#fff">
                <use xlink:href="#prefix__q"/>
            </mask>
            <path fill="#5B4663" d="M.796 7.71l5.484 4.182c2.59-2.936 6.382-4.793 10.61-4.793h.001V.22C10.43.22 4.652 3.131.796 7.71" mask="url(#prefix__r)"/>
        </g>
        <g transform="translate(267.91 104.328)">
            <mask id="prefix__t" fill="#fff">
                <use xlink:href="#prefix__s"/>
            </mask>
            <path fill="#93759E" fill-opacity=".438" d="M11.371 22.02C5.565 22.02.842 17.304.842 11.506.842 5.708 5.565.993 11.372.993 17.176.993 21.9 5.708 21.9 11.506S17.177 22.02 11.37 22.02zm0-21.398C5.361.622.473 5.506.473 11.506c0 6.001 4.888 10.882 10.898 10.882s10.9-4.88 10.9-10.882c0-6-4.89-10.884-10.9-10.884z" mask="url(#prefix__t)"/>
        </g>
        <path fill="#775E80" d="M279.282 127.782c-6.598 0-11.965-5.359-11.965-11.948 0-6.588 5.367-11.949 11.965-11.949s11.965 5.361 11.965 11.95c0 6.588-5.367 11.947-11.965 11.947zm0-25.373c-7.415 0-13.444 6.022-13.444 13.425 0 7.404 6.03 13.425 13.444 13.425 7.414 0 13.444-6.02 13.444-13.425 0-7.403-6.03-13.425-13.444-13.425z"/>
        <g transform="translate(267.91 99.486)">
            <mask id="prefix__v" fill="#fff">
                <use xlink:href="#prefix__u"/>
            </mask>
            <path fill="#775E80" fill-opacity=".324" d="M11.371.523C7.121.523 3.13 2.18.134 5.189l1.047 1.042C3.9 3.505 7.518 2 11.371 2 19.293 2 25.74 8.435 25.74 16.348c0 7.91-6.447 14.35-14.369 14.35v1.474c8.738 0 15.848-7.098 15.848-15.824 0-8.726-7.11-15.825-15.848-15.825" mask="url(#prefix__v)"/>
        </g>
        <path fill="#5B4663" d="M279.282 97.61c-10.064 0-18.25 8.175-18.25 18.224h1.476c0-9.235 7.525-16.747 16.774-16.747 9.248 0 16.77 7.512 16.77 16.747s-7.522 16.75-16.77 16.75v1.475c10.063 0 18.25-8.175 18.25-18.225 0-10.049-8.187-18.224-18.25-18.224"/>
        <g transform="translate(279.223 99.486)">
            <mask id="prefix__x" fill="#fff">
                <use xlink:href="#prefix__w"/>
            </mask>
            <path fill="#775E80" d="M13.235.465L12.29 1.6c4.412 3.656 6.941 9.029 6.941 14.748 0 10.557-8.602 19.146-19.174 19.146v1.479c11.388 0 20.653-9.253 20.653-20.625 0-6.16-2.724-11.95-7.476-15.883" mask="url(#prefix__x)"/>
        </g>
        <path fill="#775E80" fill-opacity=".324" d="M279.282 137.382v1.477c12.714 0 23.056-10.329 23.056-23.025h-1.479c0 11.881-9.68 21.548-21.577 21.548"/>
        <path fill="#93759E" d="M35.282 58.294c-7.019 0-12.728-5.7-12.728-12.707 0-7.008 5.71-12.708 12.728-12.708 7.017 0 12.725 5.7 12.725 12.708S42.3 58.294 35.282 58.294zm0-27.941c-8.413 0-15.255 6.834-15.255 15.234s6.842 15.232 15.255 15.232c8.412 0 15.255-6.833 15.255-15.232 0-8.4-6.843-15.234-15.255-15.234z"/>
        <path fill="#614C69" d="M35.282 30.353v2.526c7.017 0 12.725 5.7 12.725 12.708h2.53c0-8.4-6.843-15.234-15.255-15.234"/>
        <path fill="#93759E" fill-opacity=".438" d="M35.282 56.283c-5.908 0-10.713-4.797-10.713-10.696s4.805-10.698 10.713-10.698c5.906 0 10.712 4.8 10.712 10.698 0 5.9-4.806 10.696-10.712 10.696zm0-21.965c-6.224 0-11.286 5.055-11.286 11.269 0 6.212 5.062 11.269 11.286 11.269 6.22 0 11.283-5.057 11.283-11.27 0-6.213-5.063-11.268-11.283-11.268z"/>
        <path fill="#775E80" d="M77.476 30.353v2.526c7.016 0 12.724 5.7 12.724 12.708s-5.708 12.707-12.724 12.707v2.525c8.41 0 15.254-6.833 15.254-15.232 0-8.4-6.843-15.234-15.254-15.234"/>
        <path fill="#93759E" fill-opacity=".438" d="M77.476 56.283c-5.908 0-10.714-4.797-10.714-10.696s4.806-10.698 10.714-10.698c5.907 0 10.711 4.8 10.711 10.698 0 5.9-4.804 10.696-10.711 10.696zm0-21.965c-6.223 0-11.285 5.055-11.285 11.269 0 6.212 5.062 11.269 11.285 11.269 6.222 0 11.284-5.057 11.284-11.27 0-6.213-5.062-11.268-11.284-11.268z"/>
        <path fill="#93759E" fill-opacity=".384" d="M35.282 99.876c-7.019 0-12.728-5.702-12.728-12.71 0-3.129 1.15-6.136 3.238-8.467 2.412-2.693 5.871-4.241 9.49-4.241 7.017 0 12.725 5.702 12.725 12.708 0 7.008-5.708 12.71-12.725 12.71zm0-27.942c-4.337 0-8.483 1.853-11.377 5.084-2.501 2.794-3.878 6.398-3.878 10.148 0 8.402 6.842 15.234 15.255 15.234 8.412 0 15.255-6.832 15.255-15.234 0-8.397-6.843-15.232-15.255-15.232z"/>
        <path fill="#775E80" d="M35.282 71.934v2.524c7.017 0 12.725 5.702 12.725 12.708 0 7.008-5.708 12.71-12.725 12.71-7.019 0-12.728-5.702-12.728-12.71h-2.527c0 8.402 6.842 15.234 15.255 15.234 8.412 0 15.255-6.832 15.255-15.234 0-8.397-6.843-15.232-15.255-15.232"/>
        <path fill="#93759E" fill-opacity=".438" d="M35.282 97.864c-5.908 0-10.713-4.798-10.713-10.698 0-5.897 4.805-10.695 10.713-10.695 5.906 0 10.712 4.798 10.712 10.695 0 5.9-4.806 10.698-10.712 10.698zm0-21.964c-6.224 0-11.286 5.055-11.286 11.266 0 6.216 5.062 11.27 11.286 11.27 6.22 0 11.283-5.054 11.283-11.27 0-6.211-5.063-11.266-11.283-11.266z"/>
        <path fill="#93759E" fill-opacity=".384" d="M77.476 99.876c-7.019 0-12.728-5.702-12.728-12.71 0-7.006 5.71-12.708 12.728-12.708 7.016 0 12.724 5.702 12.724 12.708 0 7.008-5.708 12.71-12.724 12.71zm0-27.942c-8.413 0-15.256 6.835-15.256 15.232 0 8.402 6.843 15.234 15.256 15.234 8.41 0 15.254-6.832 15.254-15.234 0-8.397-6.843-15.232-15.254-15.232z"/>
        <path fill="#93759E" fill-opacity=".438" d="M77.476 97.864c-5.908 0-10.714-4.798-10.714-10.698 0-5.897 4.806-10.695 10.714-10.695 5.907 0 10.711 4.798 10.711 10.695 0 5.9-4.804 10.698-10.711 10.698zm0-21.964c-6.223 0-11.285 5.055-11.285 11.266 0 6.216 5.062 11.27 11.285 11.27 6.222 0 11.284-5.054 11.284-11.27 0-6.211-5.062-11.266-11.284-11.266z"/>
        <path fill="#775E80" d="M183.893 90.718l3.517.007.009 2.734-3.517-.007-.01-2.734zm-13.302-.024l11.105.02.01 2.736-11.106-.02-.01-2.736zm56.38-6.203l5.668.012.008 2.733-5.667-.008-.009-2.737zm-10.582-.018l8.387.013.008 2.737-8.388-.016-.007-2.734zm-21.88-.015l5.175.01.01 2.735-5.178-.008-.008-2.737zm8.085-.01l11.597.022.01 2.733-11.597-.02-.01-2.734zm-31.203-.03l20.92.036.009 2.736-20.92-.038-.01-2.735z"/>
        <path fill="#93759E" fill-opacity=".401" d="M135.354 50.887l5.669.011.008 2.735-5.667-.01-.01-2.736zm-8.178-.001l5.668.01.009 2.734-5.668-.009-.01-2.735zm-10.583-.02l8.387.016.007 2.735-8.386-.016-.008-2.735zm-13.795-.025l11.597.022.01 2.735-11.597-.021-.01-2.736zm32.537-6.205l5.668.011.009 2.735-5.668-.011-.01-2.735zm-8.107-.005l5.67.008.008 2.736-5.668-.011-.01-2.733zm-10.582-.021l8.387.014.008 2.736-8.386-.014-.009-2.736zm-13.794-.024l11.597.02.01 2.734-11.598-.018-.01-2.736zm13.466-6.222l8.341.014.01 2.734-8.34-.014-.01-2.734zm-7.373-.015l5.177.01.009 2.735-5.177-.01-.01-2.735zm-6.113-.01l3.916.007.01 2.735-3.917-.007-.01-2.736zM34.999 129.13l-.014 2.734-9.016.011.012-2.736 9.018-.01zm13.012-.004l-.015 2.736-9.016.01.013-2.735 9.018-.011zm16.834-.019l-.014 2.737-13.34.014.013-2.734 13.341-.017zm21.943-.023l-.015 2.734-18.448.022.014-2.736 18.449-.02zm-51.757-6.206l-.015 2.736-9.015.009.013-2.734 9.017-.011zm12.894-.008l-.014 2.737-9.016.007.014-2.735 9.016-.01zm16.835-.018l-.014 2.735-13.342.013.015-2.733 13.341-.015zm21.942-.025l-.014 2.734-18.447.022.014-2.736 18.447-.02zm-21.42-6.222l-.015 2.734-13.268.016.015-2.737 13.268-.013zm11.728-.013l-.014 2.734-8.235.009.014-2.734 8.235-.01zm9.725-.01l-.015 2.732-6.23.008.014-2.737 6.23-.004z"/>
        <g transform="translate(10.94 43.808)"/>
        <g transform="translate(6.092 46.23)"/>
        <path fill="#C7B2C3" d="M39.7 161.842L39.7 161.832 39.516 161.94 39.7 161.842"/>
        <g transform="translate(13.365 63.175)"/>
    </g>
</svg>
