<svg xmlns="http://www.w3.org/2000/svg" width="528" height="531" viewBox="0 0 528 531">
    <g fill="none" fill-rule="evenodd">
        <path fill="#EEE2F4" d="M313.58 529.818C174.221 515.654 58.874 413.593 8.332 283.5-42.209 153.407 148.082 42.587 285.14 36.238 422.198 29.888 528 151.609 528 290.25s-75.061 253.73-214.42 239.567z"/>
        <g fill-rule="nonzero">
            <path fill="#775E80" d="M104.8 237c0-.473 34.2-136.582 34.2-136.582L136.15 99 101 226.13l3.8 10.87z" transform="translate(84)"/>
            <path fill="#6D3535" d="M91.584 257.875c-3.416.94-10.248 1.41-11.224.94-.976-.47-5.855-5.642-3.904-7.053C78.408 250.352 95 248 95 248l-3.416 9.875zM83.579 248.499c-3.79 0-13.266 1.9-14.213 1.425-.948-.475-4.738-5.7-2.843-7.124C68.418 241.375 85 239 85 239l-1.421 9.499zM73.842 240c-3.233-.458-6.467-1.374-7.853-1.374-1.848-.458-4.157-5.953-2.31-6.869 1.848-1.374 14.321-.458 14.321-.458L73.842 240z" transform="translate(84)"/>
            <path fill="#9D6F4C" d="M85.45 231c-2.375-1.778-10.45-6.222-10.45-7.556 0-.888 1.9-4.444 4.275-4.444C81.65 219 94 225.222 94 225.222L85.45 231z" transform="translate(84)"/>
            <path fill="#9D6F4C" d="M75.053 224c-1.79-2.234-8.053-8.489-8.053-9.382 0-.894 2.684-4.021 4.921-3.575 2.237.447 12.079 9.83 12.079 9.83L75.053 224z" transform="translate(84)"/>
            <path fill="#2A1F2D" d="M250.5 163L255 160.31 244.5 150 240 155.828z" transform="translate(84)"/>
            <path fill="#9D6F4C" d="M116 254.25c-14.984 0-22.235 4.178-27.551 3.714-4.35-.464-18.368-17.178-17.401-23.678 1.45-6.5 5.8 2.785 18.85-9.286 2.9 1.393 20.302 4.179 20.302 4.179l5.8 25.07z" transform="translate(84)"/>
            <path fill="#F8EFFC" d="M95 225.29c5.175 12.024 15.054 32.705 15.054 32.705s43.279.481 51.747-8.176c8.467-8.176-1.412-29.819-11.761-29.819-9.879 0-55.04 5.29-55.04 5.29z" transform="translate(84)"/>
            <path fill="#C9C4CB" d="M142.722 239.967c4.364-4.383 12.605-12.662 9.212-19.967 9.695 3.41 20.36 24.837 12.12 32.143-8.727 8.279-56.237 5.357-56.237 5.357s-2.423-5.357-5.817-12.176c13.574.487 34.42 1.461 40.722-5.357z" transform="translate(84)"/>
            <path fill="#F8EFFC" d="M131.146 121.095c-1.428 34.844 8.09 103.1 8.09 103.1s16.659 37.709 25.226 25.298c8.566-12.41 18.561-45.345 16.181-59.664-1.903-14.797-48.545-91.168-49.497-68.734z" transform="translate(84)"/>
            <path fill="#E2D1A3" d="M166.826 176.91c-1.429-9.021-20.01-41.785-33.826-60.303 6.67-7.598 46.213 58.404 48.596 71.7 2.382 14.245-6.194 49.857-14.293 62.203-4.288 6.173-12.387 0-18.104-9.022 6.67-2.849 20.486-47.008 17.627-64.577z" transform="translate(84)"/>
            <path fill="#775E80" d="M231.817 202.13c-5.24 11.968-27.634 40.694-33.828 38.779-6.195-1.437-94.34-41.652-68.135-119.69 6.194-18.193 29.54-52.185 70.993-1.916 41.453 50.75 30.97 82.826 30.97 82.826z" transform="translate(84)"/>
            <path fill="#46344C" d="M232.799 198.86c-5.244 10.909-27.172 37.942-33.37 36.045-6.196-1.423-93.432-38.89-67.69-111.454 6.197-17.074 29.555-48.85 70.55-1.897 40.997 47.427 30.51 77.306 30.51 77.306z" transform="translate(84)"/>
            <path fill="#775E80" d="M64.259 527H60c65.774-100.942 125.396-193.274 151.895-265.512 1.42-3.349 0-11.96 0-11.96L263 228l-6.625 69.846L64.26 527z" transform="translate(84)"/>
            <path fill="#4A3B50" d="M243.991 277.354L245.42 235.667 264 228 261.142 300.833 63.906 527 62 527z" transform="translate(84)"/>
            <path fill="#775E80" d="M235.754 258.123l-.946-13.852L282.57 218s23.173 34.391 16.08 64.484c-6.622 30.57-56.75 90.755-56.75 90.755L274.531 528h-3.782S214 384.225 214 373.716c0-10.03 21.754-115.593 21.754-115.593z" transform="translate(84)"/>
            <path fill="#4A3B50" d="M233.497 371.328c30.875-44.422 41.488-82.635 38.11-94.576-2.894-10.986-46.793-14.807-65.607 0 1.93-10.03 6.754-27.227 6.754-27.227L282.22 218s23.638 34.391 16.402 64.484c-6.754 30.57-57.89 90.755-57.89 90.755L274.02 528h-3.377s-9.648-23.405-20.744-52.065c-2.894-30.092-4.824-76.903-16.402-104.607z" transform="translate(84)"/>
            <path fill="#F8EFFC" d="M285 215.613c-1.423 9.545-61.678 40.569-75.438 44.387 0 0-6.642-29.592-32.262-46.296-19.453-12.887-38.905-27.206-44.124-45.342-9.489-35.797 3.321-65.865 24.671-67.297 18.03-1.432 59.781 21 83.978 59.183C261.752 190.794 285 215.613 285 215.613z" transform="translate(84)"/>
            <path fill="#93759E" d="M146.718 151L136 138.155 146.231 103.427 155 102z" transform="translate(84)"/>
            <path fill="#93759E" d="M132.9 153L131 132.327 140.975 104.442 150 103z" transform="translate(84)"/>
            <path fill="#E1DBE3" d="M133.923 145L131 130 140.744 101.406 150 100z" transform="translate(84)"/>
            <path fill="#C9C4CB" d="M158.024 99.065c18.214-1.437 60.393 21.071 84.838 59.382C262.514 189.097 286 214 286 214c-.959 6.225-29.238 22.987-51.766 34.001-4.313-3.352-9.106-7.183-14.379-10.057-8.627-4.789-17.255-8.14-24.445-9.578-4.313-5.746-10.065-11.493-17.734-16.282-11.024-7.183-22.528-14.845-30.676-23.465 11.503-60.82-10.066-88.116 11.024-89.553z" transform="translate(84)"/>
            <path fill="#775E80" d="M284 185.069S253.737 230 237.66 230c-16.077-.473-69.51-34.053-80.385-55.336-10.876-20.81-11.349-67.634.473-78.985 11.821-11.35 58.16 14.19 87.005 61.012L284 185.07z" transform="translate(84)"/>
            <path fill="#46344C" d="M244.304 157.022L273 177.489c-11 0-23.435 1.904-36.348 5.712-19.609 5.712-36.348 14.28-47.348 23.799-6.695-4.76-13.391-9.52-18.652-14.755-4.782-10.948-7.652-23.8-7.652-37.127 0-22.847 7.652-42.839 19.609-57.118 19.608 9.52 44 29.987 61.695 59.022z" transform="translate(84)"/>
            <path fill="#281F2B" d="M178.32 160.802c-9.222-25.218-5.824-49.484 5.34-53.29 9.222-3.331 21.357 9.992 27.667 28.548 6.31 18.556 6.31 39.492-.486 48.532-8.251 10.944-23.784.952-32.52-23.79z" transform="translate(84)"/>
            <path fill="#A39EA5" d="M179.927 159.557c-8.373-23.655-5.582-46.837 4.652-50.15 8.373-2.838 19.071 9.463 25.118 26.968 5.582 17.505 6.047 37.375-.465 45.418-7.908 10.409-21.397.946-29.305-22.236z" transform="translate(84)"/>
            <path fill="#FFB882" d="M154 103.325L145.914 138s-32.819-8.55-45.661-26.6C87.411 93.35 102.156 62 102.156 62s18.55 33.725 51.844 41.325z" transform="translate(84)"/>
            <path fill="#313131" d="M113 72.694c0-24.738-24.039-45.195-24.039-45.195s4.714-29.97-21.21-26.165C41.356 5.14 46.069 16.557 46.069 16.557s-2.357-19.029-16.968-3.805C14.489 28.45 18.26 37.014 18.26 37.014S-2.95 47.48.349 75.072c3.77 27.593 16.968 44.243 49.962 17.127C82.834 65.082 113 72.694 113 72.694z" transform="translate(84)"/>
            <path fill="#131415" d="M39.31 6.097c4.282.48 6.185 5.76 6.66 8.16 0-3.36 1.904-10.56 22.36-13.92 26.64-3.84 21.408 26.4 21.408 26.4S114 47.379 114 72.34c0 0-30.447-7.68-63.272 19.68C35.03 104.98 23.612 107.86 16 104.98 37.883 91.06 51.68 25.778 39.31 6.097z" transform="translate(84)"/>
            <path fill="#261F29" d="M63.804 531H27s32.145-11.8 37.736-10.957c5.59.843-.932 10.957-.932 10.957zM281 531h-37s21.623-11.8 27.39-10.957C276.675 520.886 281 531 281 531z" transform="translate(84)"/>
            <path fill="#E1DBE3" d="M144.756 148L135 135.619 140.854 99.429 155 98z" transform="translate(84)"/>
            <path fill="#000" d="M111.66 76c6.534 7.71 16.335 16.867 28.937 22.168v-.482l2.334-.482c5.134-4.337 12.135-6.747 20.069-5.783-17.736 41.444-8.401 87.708-20.536 102.165-2.8 3.373-12.135-14.94-12.602-16.385-5.6-15.903-7.467-28.914-3.733-46.745-4.201-1.928-8.401-4.337-12.602-6.747-1.4-10.602-2.334-21.204-2.334-31.324-.466-6.265 0-11.566.467-16.385z" opacity=".6" transform="translate(84)"/>
            <path fill="#FFB882" d="M125.515 109.75s7.16 23.222.955 33.648c-5.25 8.057-30.548 16.587-39.14 8.057-8.592-8.531-46.3-54.975-48.209-70.14-1.91-14.692 19.093-60.188 38.663-46.919 19.57 13.27 47.731 75.354 47.731 75.354z" transform="translate(84)"/>
            <path fill="#333" d="M69 114.031c-.494 1.985-3.457 8.438-3.951 7.942-.494-.496 2.963-6.95 2.963-6.95s-4.939 3.475-5.927 1.49C61.098 113.535 69 114.03 69 114.03zM86.455 140.946c5.005.527 5.005-8.43 7.28-5.268C95.098 137.785 91.004 142 86 142l.455-1.054z" transform="translate(84)"/>
            <path fill="#93759E" d="M129.588 272c0-.957 33.412-179.043 33.412-179.043L158.765 92 123 261.468 129.588 272z" transform="translate(84)"/>
            <path fill="#775E80" d="M95 249L105.577 248 106 250.5 95.423 251zM94 241.5L102.55 241 103 243 94.45 244zM88 232.5L97.565 232 98 234 88 235zM81 226.75L95.516 225.75 96 228.25 81.484 229.25z" transform="translate(84)"/>
            <path fill="#DDAEEE" d="M114.935 312.407C129.807 301.964 98.143 227.44 66 186.144l17.271-43.195L85.67 142l-12.953 43.195s92.591 122.465 82.517 171.356c-10.075 48.891-81.558 19.936-81.558 19.936l15.352-72.15c0-.474 22.548 10.918 25.907 8.07z" transform="translate(84)"/>
            <path fill="#775E80" d="M95.384 308.538L93 320.963s29.567 11.946 34.812-.956c5.246-12.902-8.584-43.007-8.584-43.007s8.584 32.016 2.385 37.273c-6.677 5.256-26.229-5.735-26.229-5.735z" transform="translate(84)"/>
            <path fill="#93759E" d="M136.56 333.749c8.565-42.728-49.956-123.91-67.56-148.122l12.37-43.677 2.38-.95-10.468 43.202s91.35 117.264 80.883 171.386c-9.516 51.747-82.31 19.464-82.31 19.464l4.757-21.363c19.983 5.697 52.336 17.09 59.949-19.94z" transform="translate(84)"/>
            <path fill="#FFB882" d="M160 309.803s-3.741 31.09-7.95 34.916c-4.21 3.827-30.399-1.913-28.996-4.304 5.612-9.566.468-15.306.936-19.133.467-3.826 12.159-10.522 15.433-21.045 3.741-11 20.577 9.566 20.577 9.566z" transform="translate(84)"/>
            <path fill="#F8EFFC" d="M159.936 326L135 303.6s19.29-154.42 22.584-167.287c3.293-12.869 13.173-37.175 26.347-31.456 12.703 5.72 23.525 17.634 23.054 43.37C206.515 165.863 159.936 326 159.936 326z" transform="translate(84)"/>
            <path fill="#C9C4CB" d="M194.382 148.207c.472-23.356-8.488-35.75-19.333-42.422 2.829-1.907 6.13-2.384 9.43-.954 12.732 5.72 24.521 19.543 24.521 45.283C209 167.75 160.902 326 160.902 326L151 316.944c9.902-36.226 43.382-153.96 43.382-168.737z" transform="translate(84)"/>
            <path fill="#FFB882" d="M134 341.529c-3.5 3.696-13 16.17-15.5 17.093-2.5 1.386-6.5-1.386-6.5-2.772s12-17.555 12.5-19.403c0-2.31 9.5 5.082 9.5 5.082zM134 325.571c-5.354 1.484-20.522 8.9-23.199 8.405-2.677 0-4.461-5.438-3.569-6.921.892-1.484 20.522-10.877 21.86-12.855 1.785-1.978 4.908 11.371 4.908 11.371z" transform="translate(84)"/>
            <path fill="#FFB882" d="M145 340.844c-1.932 4.722-6.278 19.357-8.21 21.246-1.932 1.888-6.278.472-6.761-.944-.483-1.417 5.312-20.774 4.83-22.662-.967-1.889 10.141 2.36 10.141 2.36zM155 337.602c-1.254 4.745-3.76 19.93-5.014 22.302-1.254 1.898-5.433.95-5.85 0-.836-1.423 2.507-20.879 1.67-23.252-.417-1.898 9.194.95 9.194.95z" transform="translate(84)"/>
            <path fill="#D09EE2" d="M92.5 250.235c-1-2.353-1-4.235-.5-4.235s2 1.412 2.5 3.765c1 2.353 1 4.235.5 4.235s-1.5-1.882-2.5-3.765zM92.5 243.235c-1-2.353-1-4.235-.5-4.235s2 1.412 2.5 3.765c1 2.353 1 4.235.5 4.235s-1.5-1.412-2.5-3.765zM87.5 234.235c-1-2.353-1-4.235-.5-4.235s2 1.412 2.5 3.765c1 2.353 1 4.235.5 4.235s-1.5-1.412-2.5-3.765zM80.5 228.197c-1-2.332-1-4.197-.5-4.197s2 1.4 2.5 3.73c1 2.333 1 4.198.5 4.198-.5.466-1.5-1.399-2.5-3.73z" transform="translate(84)"/>
            <path fill="#131415" d="M106.008 93C91.093 72.584 68.721 55.49 67.79 44.095c-.932-11.87-13.517-2.848-16.313 1.425-2.797 3.798-6.991-26.589 11.652-23.265 18.644 3.323 38.685 28.962 43.812 43.681C112.067 80.18 106.008 93 106.008 93z" transform="translate(84)"/>
            <path fill="#FFB882" d="M116.153 89.766c8.803-9.925 9.782-30.719-.978-35.917-11.25-5.199-18.097 14.65-11.738 27.883 6.358 13.232 7.825 13.232 12.716 8.034z" transform="translate(84)"/>
            <path fill="#BF6B2B" d="M116.39 83.946c5.823-6.703 6.794-21.068-.97-24.42-7.279-3.351-12.13 10.056-7.764 18.674 4.367 9.098 5.338 9.098 8.734 5.746z" transform="translate(84)"/>
            <path fill="#7B441B" d="M115.297 84.548c3.44-4.144 3.932-12.431-.492-14.273-4.423-1.842-7.372 5.985-4.914 11.05 2.949 5.525 3.44 5.525 5.406 3.223z" transform="translate(84)"/>
            <g fill="#333">
                <path d="M2.821 25.668c2.385-.96 5.723-2.882 9.539-5.284 1.908-.96 3.815-.48 5.246.96l2.862 4.804c.477.961.477 1.441.477 2.402 0 .96-.477 1.441-1.431 1.921-4.77 2.883-9.062 4.804-10.97 5.284-4.292.48-12.877-7.205-5.723-10.087zM21.899 17.982c-.954-1.44-.477-3.362.953-4.323C28.1 9.816 32.391 5.493 34.3 1.651c2.861-4.804 9.538 1.92 8.585 7.205-.954 3.843-6.677 10.087-13.831 15.37-.477.481-1.431.481-1.908.481-.477 0-1.431-.48-1.908-.96l-3.338-5.765z" transform="translate(84) translate(44 83)"/>
            </g>
            <path fill="#2A1F2D" d="M224 254.5L234 249 233.545 257.5 224 258z" transform="translate(84)"/>
            <path fill="#4A3B50" d="M225.146 306L240 301 226.583 302.818 217 301z" transform="translate(84)"/>
            <path fill="#FFB255" d="M84.77 144.118l3.23-2.824S83.692 138 81 138v8l3.77-1.882z" transform="translate(84)"/>
            <path fill="#FFB882" d="M77.743 250.673c3.119-1.359 12.92-4.075 13.812-3.623 1.336.453 3.564 4.075 1.782 5.887-1.337 1.81-10.693 4.98-10.693 4.98-4.01.906-7.129-5.886-4.901-7.244zM67.743 242.673c3.119-1.359 12.92-4.075 13.812-3.623 1.336.453 3.564 4.075 1.782 5.887-1.337 1.81-10.693 4.98-10.693 4.98-4.01.906-7.129-5.886-4.901-7.244zM63.693 231.529c3.128-1.305 12.96-3.916 13.854-3.48 1.34.434 3.575 3.915 1.788 5.655-1.341 1.74-11.62 5.221-11.62 5.221-4.022.87-5.81-6.09-4.022-7.396z" transform="translate(84)"/>
            <path fill="#775E80" d="M89.174 300L93 303.353 76.261 380 71 380z" transform="translate(84)"/>
            <path fill="#333" d="M101.185 135c2.407-4.72-.963-9.44-4.333-8.967-3.37.944-3.852 2.36-3.852 2.36s7.222-.944 8.185 6.607zM72.875 112.412c0 8.47-.469 18.353 2.344 20.235 2.812 1.883 8.437-1.412 10.781-3.765v.471c0 2.353-8.906 8.47-12.656 6.118C70.063 133.118 71.469 120.882 71 111c0 0 .938.47 1.875 1.412z" transform="translate(84)"/>
            <path fill="#313131" d="M44.038 17.981c.445-7.217 4.453-13.472 8.907-13.953 4.9-.481 8.463 5.293 8.017 12.99-.445 7.218-4.453 13.473-8.907 13.954-4.9.481-8.463-5.293-8.017-12.99z" transform="translate(84)"/>
            <path fill="#333" d="M79 111c.894-2.99 8.937-15.942 10.277-14.945.894 1.494-8.49 13.45-8.49 13.45s10.278-6.974 11.172-4.483C92.852 107.512 79 111 79 111z" transform="translate(84)"/>
        </g>
    </g>
</svg>
