<svg xmlns="http://www.w3.org/2000/svg" width="529" height="689" viewBox="0 0 529 689">
    <g fill="none" fill-rule="evenodd">
        <path fill="#EEE2F4" d="M527.737 309.445C512.6 458.57 403.529 582 264.5 636.084 125.471 690.167 7.04 486.54.254 339.879-6.53 193.216 123.55 80 271.714 80c148.165 0 271.16 80.32 256.023 229.445z"/>
        <g fill-rule="nonzero">
            <path fill="#7F4646" d="M17 684L19.801 684 151 368.63 116.916 310z" transform="translate(137)"/>
            <path fill="#6D3535" d="M79.53 543L152 369.71 117.647 311 72 480.976c4.235 15.15 7.059 36.93 7.53 62.024z" transform="translate(137)"/>
            <path fill="#7F4646" d="M197.6 687L199.933 687 213 372.251 157 330z" transform="translate(137)"/>
            <path fill="#93759E" d="M203.783 673S82 521.279 82 425.33c0-10.398 34.795-110.128 38.086-130.924 3.292-20.797 6.583-68.535 6.583-68.535L158.173 215s-8.934 49.156 2.821 68.535c11.755 19.378 53.133 76.57 55.484 89.803C223.531 408.788 203.783 673 203.783 673z" transform="translate(137)"/>
            <g>
                <path fill="#775E80" d="M11.76 62.223c34.19 0 72.594 89.262 82.898 194.58 1.874-45.81 3.747-85.482.469-97.29C81.544 102.84 54.848 87.727 43.14 68.836 31.43 49.471 38.456.354 38.456.354l-37 11.335s1.405 31.17-1.405 53.84c4.215-1.889 7.962-3.306 11.709-3.306z" transform="translate(137) translate(122 213)"/>
                <path fill="#C12D2D" d="M81.076 457.524l1.405 1.417s.468-3.778.937-9.918c-.937 3.306-1.874 6.14-2.342 8.501z" transform="translate(137) translate(122 213)"/>
            </g>
            <path fill="#7F4646" d="M83 293c1.899-37.759 14.716-101.949 34.654-112.333 19.938-10.383-22.312 103.837-22.312 103.837L83 293z" transform="translate(137)"/>
            <path fill="#6D3535" d="M117.763 181.671c-1.86.946-3.72 2.364-5.58 4.255C112.182 205.785 88 289 88 289l7.906-3.783s41.389-113.948 21.857-103.546z" transform="translate(137)"/>
            <path fill="#7F4646" d="M210.816 275c2.808-6.117-27.15-95.992-47.277-105.403-20.596-9.41 35.575 95.521 35.575 95.521L210.816 275z" transform="translate(137)"/>
            <path fill="#6D3535" d="M181.64 218.748c-7.091-18.435-11.818-34.98-13.236-45.852-1.418-1.418-3.309-2.363-4.727-3.309-20.798-9.454 34.506 98.322 34.506 98.322L210 275s-15.599-23.162-28.36-56.252z" transform="translate(137)"/>
            <path fill="#93759E" d="M116.908 180.847c-5.635 8.057-15.025 68.245-8.921 73.458 6.573 4.74 63.854-16.113 65.732-21.8 1.878-5.687-6.104-60.189-10.799-63.506-4.695-4.265-41.787 6.16-46.012 11.848z" transform="translate(137)"/>
            <path fill="#584460" d="M162.656 169c4.689 10.907 10.784 55.956 8.909 61.646-1.876 5.69-57.202 26.556-63.298 21.814-5.626-4.268 1.876-56.43 7.033-70.657-5.626 10.907-15.472 68.76-9.377 73.502 6.564 4.742 66.11-16.123 67.517-21.814 2.813-6.164-5.626-57.852-10.784-64.491z" transform="translate(137)"/>
            <path fill="#7F4646" d="M160 169.11c-10.382-.934-35.865 4.198-42 11.663.472 29.858 4.72 51.785 21.236 48.986 14.63-3.266 19.348-40.122 20.764-60.65z" transform="translate(137)"/>
            <path fill="#6D3535" d="M160.056 169c-1.887 21.659-6.607 56.972-19.82 59.797-15.573 3.296-19.82-18.834-20.764-48.497l-.472.471c.472 30.605 4.72 53.206 21.236 49.91C154.393 227.856 159.112 190.188 161 169h-.944z" transform="translate(137)"/>
            <path fill="#654F6D" d="M24.532 689H0s20.758-12.905 24.532-11.95c3.303.957 0 11.95 0 11.95zM194 689h14s-9.172-12.905-10.62-11.95C195.93 678.008 194 689 194 689z" transform="translate(137)"/>
            <g fill="#775E80">
                <path d="M76.836 16.988c-1.421.475-15.155 103.096-20.364 140.154 9.945 15.678 19.89 29.456 27.467 40.383C80.624 91.578 78.73 16.038 76.836 16.988zM16.692.36C15.745.835 7.22 29.816.117 53.57 6.273 69.25 13.85 84.927 21.9 100.13 13.377 36.942 18.586-.116 16.691.36z" transform="translate(137) translate(100 448)"/>
            </g>
            <path fill="#6D3535" d="M136 230L137 216 142 229.034z" transform="translate(137)"/>
            <path fill="#7F4646" d="M127.471 174.68L127 139.951l21.215-.951 3.772 29.496c.471.475-11.786 18.553-24.516 6.184z" transform="translate(137)"/>
            <path fill="#000" d="M139.404 199.886c16.304-1.905 30.28-6.667 39.596-12.382-3.26-5.715-6.988-10.477-9.783-13.81v-.477c-1.397-1.429-3.26-2.381-4.658-3.334-.466 0-.932-.476-1.398-.476-.465-.476-1.863-.476-3.26-.952h-7.454l-3.727-28.098c-4.192-.476-8.85-.476-13.509 0-2.795.476-5.124.953-7.92 1.429l.467 32.383c-4.193 1.43-7.454 3.81-8.851 5.715l-.932.953c-.466.476-.932.476-1.863.952l-.466.476-.932.953c-.466 0-.466.476-.931.476-.466 0-.466.476-.932.952-3.26 3.334-6.056 8.096-8.851 13.335 9.317 3.334 21.894 3.81 35.404 1.905z" opacity=".154" transform="translate(137)"/>
            <path fill="#4C2727" d="M141.71 153.997c-41.854.473-104.4-55.354-71.481-116.386 24.454-44.946 106.28-56.3 134.026 3.312 39.973 84.687-55.491 111.655-62.545 113.074z" transform="translate(137)"/>
            <path fill="#3A1E1E" d="M142.227 84.233c-33.862 0-63.492-15.553-76.19-37.233-22.575 57.028 35.743 107.93 75.72 106.987 7.054-1.414 90.3-24.98 68.665-96.618-15.05 16.024-39.977 26.864-68.195 26.864z" transform="translate(137)"/>
            <path fill="#7F4646" d="M141.948 165c-21.42-6.097-37.604-28.139-37.604-39.394-.476-11.255-4.284-57.684 31.416-60.498 37.128-2.814 35.224 50.18 35.224 56.277.476 13.6-11.424 35.173-29.036 43.615z" transform="translate(137)"/>
            <path fill="#7F4646" d="M109 138c-8.939-2.333-16.936-8.866-14.584-17.733 2.352-8.866 7.998-4.666 9.88-.933C106.176 123.534 109 138 109 138zM166 138c8.939-2.333 16.936-8.866 14.584-17.733-2.352-8.866-7.998-4.666-9.88-.933C168.824 123.534 166 138 166 138z" transform="translate(137)"/>
            <path fill="#602C2C" d="M168 134c5.528-1.34 10.134-5.362 8.752-10.724-1.382-5.362-5.067-3.128-5.988-.447C169.843 125.063 168 134 168 134z" transform="translate(137)"/>
            <path fill="#7F4646" d="M168 136c3.402-1.037 6.803-4.148 5.831-7.778-.971-3.629-3.401-2.074-4.373-.518C168.972 129.259 168 136 168 136z" transform="translate(137)"/>
            <path fill="#602C2C" d="M107 134c-5.528-1.34-10.134-5.362-8.752-10.724 1.382-5.362 5.067-3.128 5.988-.447C105.157 125.063 107 134 107 134z" transform="translate(137)"/>
            <path fill="#7F4646" d="M107 135c-3.402-1.015-6.803-4.061-5.831-7.615.971-4.061 3.401-2.03 4.373-.508C106.028 128.4 107 135 107 135zM83.01 292.863C84.862 265.35 124.222 207 124.222 207H127c-9.724 26.565-21.763 63.567-25.005 74.478-3.704 11.86-19.448 18.975-18.985 11.385z" transform="translate(137)"/>
            <path fill="#6D3535" d="M126.61 207c-11.115 27.742-23.62 64.571-26.863 74.616-2.779 7.653-10.652 12.436-15.747 12.914 0 7.653 16.21 1.913 19.916-10.044 3.242-10.523 14.358-49.744 24.084-76.53l-1.39-.956z" transform="translate(137)"/>
            <path fill="#7F4646" d="M212.684 273.242C203.218 247.018 147.367 196 147.367 196L145 198.86c17.04 23.841 40.705 57.217 46.385 66.753 7.1 11.444 24.139 14.781 21.299 7.63z" transform="translate(137)"/>
            <path fill="#6D3535" d="M210.338 268.472c-5.208.47-13.73-2.345-17.992-8.442-6.155-8.441-28.407-37.988-46.873-60.03l-.473.469c17.045 23.45 38.824 58.154 44.98 67.534 7.101 10.787 25.566 13.132 22.725 5.628-.947-2.345-1.893-3.752-2.367-5.159z" transform="translate(137)"/>
            <path fill="#6D3535" d="M146 201c-3.147-1.623-6.294-4.868-6.819-5.95-.524-1.081-2.622-4.326-2.098-4.867 0-.541 1.574 0 3.672 3.245 1.049 2.163 5.245 3.245 5.245 3.245V201z" transform="translate(137)"/>
            <path fill="#6D3535" d="M141.099 189.673c-.496.513.991 2.05 1.983 4.613.992 2.563-.992 3.588 2.48 6.664L153 203c-2.48-2.05-3.967-10.251-4.463-12.302 0-2.05-6.447-2.05-7.439-1.025z" transform="translate(137)"/>
            <path fill="#6D3535" d="M147 191c-1.115-2.727-2.788-4.09-3.345-4.545-1.115-.455-3.903-1.818-4.46-1.364-.558 0 0 .91 2.787 2.273 1.673.909 2.788 3.636 2.788 3.636H147z" transform="translate(137)"/>
            <path fill="#6D3535" d="M149 192c-.528-3-1.584-5-2.113-5.5-.528-.5-3.168-2.5-3.697-2.5-.528 0 0 1 2.113 3 1.584 1.5 2.113 4.5 2.113 4.5l1.584.5zM144 192c-1.973-2.5-3.453-4-4.44-4-.986-.5-3.946-1-4.439-1-.493.5.493 1 3.453 2 1.973.5 3.453 3 3.453 3H144z" transform="translate(137)"/>
            <path fill="#9DB2B0" d="M135.176 189.474L130 224.053 136.588 225 138 189z" transform="translate(137)"/>
            <path fill="#738E8B" d="M137 209l1-19-3 .442-2 11.046c2 .884 3 3.535 4 7.512z" transform="translate(137)"/>
            <path fill="#C5D3D2" d="M144.95 181.695c.465-5.562-2.329-10.196-6.519-10.66-4.19-.463-7.915 3.708-8.38 9.27-.466 5.562 2.328 10.196 6.518 10.66 4.19.463 7.915-3.708 8.38-9.27z" transform="translate(137)"/>
            <path fill="#A4BCBA" d="M143.896 175c-.923 3.175-4.154 5.442-7.385 5.442-2.307 0-4.615-.907-6-2.721 0 .454-.46 1.36-.46 1.814-.462 5.442 2.307 9.977 6.46 10.43 4.154.454 7.846-3.627 8.308-9.07.461-1.813 0-4.081-.923-5.895z" transform="translate(137)"/>
            <path fill="#DDEDEB" d="M139.68 171.964c-.504-1.018-3.021-1.527-5.035 0-2.013 1.018-3.02 3.054-2.517 4.072.504 1.018 3.02 1.527 5.034 0s3.524-3.054 2.518-4.072z" transform="translate(137)"/>
            <path fill="#6D3535" d="M125 208c.93-3.667 3.721-7.333 4.652-7.857.93-.524 3.72-3.143 4.186-3.143.465 0 0 1.571-2.326 4.19-1.86 1.572-2.326 5.762-2.326 5.762L125 208z" transform="translate(137)"/>
            <path fill="#6D3535" d="M134.345 202.097c-.47-.496-1.881.993-4.232 2.483-2.351 1.49-3.762-.497-6.113 3.476V216c1.41-2.98 7.994-3.972 9.874-4.469 1.411-.993 1.411-8.44.47-9.434z" transform="translate(137)"/>
            <path fill="#6D3535" d="M134 212c2.77-1.565 4.154-3.13 4.615-4.174.462-1.043 1.385-4.174 1.385-4.696 0-.521-.923.522-2.308 3.13-.923 2.088-3.23 3.131-3.23 3.131L134 212z" transform="translate(137)"/>
            <path fill="#6D3535" d="M134.5 209c2.5-1.976 3.5-3.952 4-4.94 0-.988.5-4.447.5-4.94-.5-.495-1 .493-2 3.952-.5 1.976-3 3.952-3 3.952l.5 1.976z" transform="translate(137)"/>
            <path fill="#6D3535" d="M133.5 206c2.5-1.976 3.5-3.952 4-4.94 0-.988.5-4.447.5-4.94-.5-.495-1 .493-2 3.952-.5 1.976-3 3.952-3 3.952l.5 1.976z" transform="translate(137)"/>
            <path fill="#93759E" d="M101 145.947L100 172 112 170.579 107 145zM167.96 145.947L167 172 179 170.579 173.72 145zM168 141.5c0 1.5 1 2.5 2.5 2.5s2.5-1 2.5-2.5-1-2.5-2.5-2.5-2.5 1.5-2.5 2.5zM168.5 133.5c0 1 1 2 2 2s2-1 2-2-1-2-2-2c-1.5 0-2 1-2 2zM101 141.5c0 1.5 1 2.5 2.5 2.5s2.5-1 2.5-2.5-1-2.5-2.5-2.5c-1 0-2.5 1.5-2.5 2.5zM102.5 133.5c0 1 1 2 2 2s2-1 2-2-1-2-2-2-2 1-2 2z" transform="translate(137)"/>
            <g>
                <path fill="#4C2731" d="M19.509 45.73h20.213s-3.76 12.211-9.872 12.211c-8.461 0-10.341-12.21-10.341-12.21z" transform="translate(137) translate(109 94)"/>
                <path fill="#FFECC7" d="M35.962 51.366c1.41-2.348 1.88-4.696 1.88-4.696H20.449s.47 2.348 1.88 4.696h13.633z" transform="translate(137) translate(109 94)"/>
                <path fill="#4C2929" d="M19.979 23.188c0-3.757-2.35-7.044-5.641-7.044s-5.641 3.287-5.641 7.044c0 3.757 2.82 7.045 5.64 7.045 3.291 0 5.642-3.288 5.642-7.045z" transform="translate(137) translate(109 94)"/>
                <path fill="#4C2929" d="M12.927 17.083c3.29-.47 6.111 0 7.992 1.409-1.41-2.818-4.701-4.696-8.462-3.757-3.76.94-6.58 3.757-6.58 7.514.94-2.348 3.76-4.227 7.05-5.166zM44.893 17.083c3.29.94 5.641 2.818 7.051 5.166 0-3.287-2.82-6.105-6.58-7.045-3.761-.939-7.522.47-8.932 3.758 1.88-1.879 5.17-2.349 8.461-1.879z" transform="translate(137) translate(109 94)"/>
                <path fill="#4C2929" d="M49.124 23.188c0-3.757-2.82-7.044-5.641-7.044-3.29 0-5.641 3.287-5.641 7.044 0 3.757 2.35 7.045 5.64 7.045 3.292 0 5.642-3.288 5.642-7.045z" transform="translate(137) translate(109 94)"/>
                <path fill="#602C2C" d="M32.67 34.46c.941 2.348 0 5.166-2.82 5.166-2.35 0-3.76-2.349-2.82-5.166h-.47c-1.88 3.287 0 6.105 3.29 6.105 3.291 0 4.231-3.757 2.82-6.105z" transform="translate(137) translate(109 94)"/>
                <path fill="#4C2727" d="M.235 15.204C2.585 9.1 8.226 1.585 23.269.176l.47 5.636C14.338 5.342 8.226 7.69.235 15.204zM54.765 15.674C52.885 9.57 47.244 1.585 33.141.176l-.47 5.636c8.932-.47 15.043 2.348 22.094 9.862z" transform="translate(137) translate(109 94)"/>
            </g>
        </g>
    </g>
</svg>
