<svg width="16" height="17" viewBox="0 0 16 17" fill="none" xmlns="http://www.w3.org/2000/svg">
<circle cx="8" cy="8" r="8" fill="#C4C4C4"/>
<path d="M6.92141 12V7.09H8.07141V12H6.92141ZM7.50141 6.23C7.29474 6.23 7.12474 6.17 6.99141 6.05C6.85807 5.93 6.79141 5.77333 6.79141 5.58C6.79141 5.38667 6.85807 5.23 6.99141 5.11C7.12474 4.98333 7.29474 4.92 7.50141 4.92C7.70807 4.92 7.87807 4.98333 8.01141 5.11C8.14474 5.23 8.21141 5.38667 8.21141 5.58C8.21141 5.77333 8.14474 5.93 8.01141 6.05C7.87807 6.17 7.70807 6.23 7.50141 6.23Z" fill="white"/>
</svg>
